if (_typeface_js && _typeface_js.loadFace) _typeface_js.loadFace({"glyphs":{"S":{"x_min":50.359375,"x_max":925.5625,"ha":994,"o":"m 435 641 b 323 733 363 647 323 650 b 483 822 323 791 336 822 b 635 715 592 822 635 822 l 896 715 l 896 758 b 483 1050 896 1045 706 1050 b 51 731 216 1050 51 1030 b 450 416 51 433 198 434 l 510 412 b 653 315 638 404 653 405 b 483 219 653 227 611 219 b 311 338 349 219 311 230 l 50 338 b 483 -8 50 -2 223 -8 b 925 333 932 -8 925 161 b 548 633 925 572 850 611 l 435 641 "},"¦":{"x_min":330.75,"x_max":487.28125,"ha":833,"o":"m 487 243 l 330 243 l 330 -243 l 487 -243 l 487 243 m 487 937 l 330 937 l 330 451 l 487 451 l 487 937 "},"/":{"x_min":41,"x_max":828,"ha":885,"o":"m 828 1041 l 641 1041 l 41 -156 l 227 -156 l 828 1041 "},"y":{"x_min":-10,"x_max":735,"ha":740,"o":"m 735 729 l 495 729 l 379 136 l 376 136 l 235 729 l -10 729 l 202 0 l 330 0 b 207 -156 326 -83 305 -156 b 167 -154 194 -156 180 -155 l 167 -319 b 247 -323 194 -320 220 -323 b 555 -63 446 -323 515 -255 l 735 729 "},"≈":{"x_min":53,"x_max":854.703125,"ha":933,"o":"m 774 690 b 619 578 726 618 680 578 b 474 634 566 578 537 596 b 303 690 430 662 379 690 b 53 533 202 690 103 620 l 131 451 b 296 561 178 510 224 561 b 436 513 351 561 393 536 b 623 449 508 472 553 449 b 854 607 709 449 789 506 l 774 690 m 774 389 b 617 278 722 317 681 278 b 473 336 559 278 522 308 b 303 390 430 361 379 390 b 53 233 202 390 103 319 l 131 151 b 298 262 178 209 223 262 b 436 212 349 262 390 239 b 621 150 504 175 552 150 b 854 307 711 150 790 208 l 774 389 "},"Ž":{"x_min":30.71875,"x_max":865.078125,"ha":915,"o":"m 865 1041 l 62 1041 l 62 800 l 512 800 l 512 791 l 30 234 l 30 0 l 865 0 l 865 241 l 376 241 l 376 250 l 865 808 l 865 1041 m 445 1131 l 694 1283 l 660 1362 l 445 1276 l 238 1362 l 202 1283 l 445 1131 "},"Á":{"x_min":-16,"x_max":1014,"ha":1018,"o":"m 683 179 l 736 0 l 1014 0 l 703 1041 l 290 1041 l -16 0 l 267 0 l 317 179 l 683 179 m 628 381 l 375 381 l 499 833 l 502 833 l 628 381 m 604 1362 l 326 1195 l 364 1109 l 672 1208 l 604 1362 "},"g":{"x_min":47.640625,"x_max":759.5,"ha":854,"o":"m 401 183 b 281 363 300 183 281 213 b 401 554 281 531 292 554 b 525 363 499 554 525 529 b 401 183 525 238 515 183 m 76 -65 b 411 -323 84 -295 157 -323 b 759 31 686 -323 759 -240 l 759 729 l 525 729 l 533 600 l 525 600 b 322 737 496 712 423 737 b 47 363 76 737 47 600 b 322 0 47 156 69 0 b 517 119 412 0 487 29 l 525 119 l 525 -31 b 402 -150 525 -133 503 -150 b 330 -138 375 -150 349 -148 b 298 -65 310 -127 298 -105 l 76 -65 "},"²":{"x_min":27.21875,"x_max":551.25,"ha":600,"o":"m 551 550 l 196 550 b 367 650 196 633 232 616 b 549 852 506 686 549 712 b 288 1050 549 1029 445 1050 b 27 847 119 1050 27 1016 l 27 816 l 196 816 l 196 847 b 288 919 196 913 208 919 b 381 850 359 920 381 912 b 261 762 382 786 371 787 b 27 550 59 718 27 694 l 27 419 l 551 419 l 551 550 "},"–":{"x_min":0,"x_max":680.5625,"ha":694,"o":"m 0 497 l 0 269 l 680 269 l 680 497 l 0 497 "},"ë":{"x_min":40.828125,"x_max":739.078125,"ha":797,"o":"m 274 455 b 386 570 277 551 303 570 b 504 455 465 570 504 563 l 274 455 m 509 243 b 390 158 509 166 462 158 b 274 323 294 158 274 195 l 739 323 l 739 363 b 390 737 739 661 658 737 b 40 363 103 737 40 644 b 390 -8 40 91 108 -8 b 642 34 494 -8 581 0 b 739 243 703 70 739 133 l 509 243 m 322 988 l 174 988 l 174 845 l 322 845 l 322 988 m 608 988 l 460 988 l 460 845 l 608 845 l 608 988 "},"ƒ":{"x_min":105,"x_max":875,"ha":1000,"o":"m 811 679 l 672 679 l 684 752 b 790 875 700 859 724 875 b 845 868 808 875 827 872 l 875 1050 b 441 761 555 1050 492 1050 l 426 679 l 324 679 l 294 504 l 397 504 l 304 -29 b 204 -148 292 -95 283 -148 b 134 -141 181 -148 158 -144 l 105 -323 b 548 -37 476 -323 500 -316 l 642 504 l 781 504 l 811 679 "},"Î":{"x_min":-25.859375,"x_max":466.859375,"ha":450,"o":"m 356 1041 l 84 1041 l 84 0 l 356 0 l 356 1041 m 217 1362 l -25 1211 l 10 1131 l 217 1218 l 432 1131 l 466 1211 l 217 1362 "},"e":{"x_min":40.828125,"x_max":739.078125,"ha":797,"o":"m 274 455 b 386 570 277 551 303 570 b 504 455 465 570 504 563 l 274 455 m 509 243 b 390 158 509 166 462 158 b 274 323 294 158 274 195 l 739 323 l 739 363 b 390 737 739 661 658 737 b 40 363 103 737 40 644 b 390 -8 40 91 108 -8 b 642 34 494 -8 581 0 b 739 243 703 70 739 133 l 509 243 "},"Ã":{"x_min":-16,"x_max":1014,"ha":1018,"o":"m 683 179 l 736 0 l 1014 0 l 703 1041 l 290 1041 l -16 0 l 267 0 l 317 179 l 683 179 m 628 381 l 375 381 l 499 833 l 502 833 l 628 381 m 683 1330 b 612 1266 669 1300 647 1266 b 506 1314 578 1266 544 1289 b 379 1361 469 1338 428 1361 b 203 1228 296 1361 241 1296 l 314 1168 b 396 1230 332 1201 355 1230 b 492 1183 426 1230 456 1206 b 627 1136 529 1159 573 1136 b 794 1273 710 1136 760 1204 l 683 1330 "},"J":{"x_min":29.9375,"x_max":739.078125,"ha":836,"o":"m 466 1041 l 466 320 b 371 233 466 255 455 233 b 288 350 298 233 288 263 l 288 436 l 29 436 l 29 350 b 371 -8 29 59 88 -8 b 739 320 657 -8 739 41 l 739 1041 l 466 1041 "},"»":{"x_min":53,"x_max":685,"ha":772,"o":"m 510 51 l 685 388 l 502 715 l 356 623 l 487 388 l 356 135 l 510 51 m 206 51 l 381 388 l 198 715 l 53 623 l 183 388 l 53 135 l 206 51 "},"∆":{"x_min":38.125,"x_max":1091.625,"ha":1156,"o":"m 38 0 l 1091 0 l 1091 119 l 709 1043 l 427 1043 l 38 119 l 38 0 m 288 176 l 475 637 b 551 852 499 706 537 806 l 558 852 b 643 618 577 790 619 686 l 826 176 l 288 176 "},"©":{"x_min":25.859375,"x_max":1063.03125,"ha":1111,"o":"m 544 -8 b 1063 520 830 -8 1063 227 b 544 1050 1063 813 830 1050 b 25 520 257 1050 25 813 b 544 -8 25 227 257 -8 m 544 112 b 144 520 321 112 144 294 b 544 929 144 747 321 929 b 944 520 763 929 944 747 b 544 112 944 294 763 112 m 698 420 b 566 305 694 352 631 305 b 385 527 451 305 385 423 b 562 745 385 638 445 745 b 698 636 630 745 686 704 l 819 636 b 563 845 797 768 695 845 b 266 525 378 845 266 709 b 566 205 266 345 383 205 b 819 420 694 205 804 286 l 698 420 "},"˘":{"x_min":102,"x_max":587,"ha":703,"o":"m 102 1018 b 344 795 116 891 217 795 b 587 1018 475 795 572 887 l 458 1018 b 344 913 446 952 412 913 b 230 1018 276 913 242 954 l 102 1018 "},"≥":{"x_min":78.9375,"x_max":834.359375,"ha":933,"o":"m 83 983 l 83 841 l 700 577 l 700 573 l 84 308 l 84 166 l 834 506 l 834 641 l 83 983 m 830 -16 l 830 112 l 78 112 l 78 -16 l 830 -16 "},"ò":{"x_min":45.90625,"x_max":760.484375,"ha":824,"o":"m 402 737 b 45 363 104 737 45 662 b 402 -8 45 72 109 -8 b 760 363 699 -8 760 63 b 402 737 760 672 701 737 m 406 554 b 526 363 515 554 526 522 b 406 175 526 205 515 175 b 280 363 293 175 280 205 b 406 554 280 522 293 554 m 299 1050 l 231 895 l 538 797 l 576 883 l 299 1050 "},"^":{"x_min":68.4375,"x_max":749,"ha":833,"o":"m 245 347 l 407 816 l 410 816 l 572 347 l 749 347 l 490 1041 l 327 1041 l 68 347 l 245 347 "},"«":{"x_min":63,"x_max":695,"ha":772,"o":"m 237 715 l 63 377 l 245 51 l 391 142 l 260 377 l 391 630 l 237 715 m 541 715 l 366 377 l 549 51 l 695 142 l 564 377 l 695 630 l 541 715 "},"D":{"x_min":70.78125,"x_max":999.0625,"ha":1076,"o":"m 70 0 l 624 0 b 999 419 909 0 999 134 l 999 637 b 588 1041 999 933 872 1041 l 70 1041 l 70 0 m 343 800 l 581 800 b 718 637 676 800 718 772 l 718 419 b 581 241 718 309 681 241 l 343 241 l 343 800 "},"∙":{"x_min":134.75,"x_max":355.25,"ha":500,"o":"m 355 504 l 134 504 l 134 262 l 355 262 l 355 504 "},"ł":{"x_min":0,"x_max":424.671875,"ha":433,"o":"m 330 607 l 424 677 l 424 809 l 330 739 l 330 1041 l 96 1041 l 96 594 l 0 523 l 0 395 l 96 465 l 96 0 l 330 0 l 330 607 "},"ÿ":{"x_min":-9.53125,"x_max":735,"ha":740,"o":"m 735 729 l 495 729 l 379 136 l 377 136 l 235 729 l -9 729 l 202 0 l 330 0 b 208 -156 326 -83 306 -156 b 167 -154 194 -156 181 -155 l 167 -319 b 247 -323 194 -320 220 -323 b 555 -63 446 -323 515 -255 l 735 729 m 294 988 l 145 988 l 145 845 l 294 845 l 294 988 m 579 988 l 431 988 l 431 845 l 579 845 l 579 988 "},"Ł":{"x_min":-4.078125,"x_max":796.25,"ha":828,"o":"m 367 618 l 540 763 l 540 956 l 367 809 l 367 1041 l 95 1041 l 95 620 l -4 537 l -4 340 l 95 425 l 95 0 l 796 0 l 796 241 l 367 241 l 367 618 "},"í":{"x_min":2.71875,"x_max":348.4375,"ha":357,"o":"m 292 729 l 58 729 l 58 0 l 292 0 l 292 729 m 280 1050 l 2 883 l 40 797 l 348 895 l 280 1050 "},"ˆ":{"x_min":102,"x_max":594.71875,"ha":711,"o":"m 345 1050 l 102 898 l 138 819 l 345 905 l 560 819 l 594 898 l 345 1050 "},"w":{"x_min":1,"x_max":1139,"ha":1164,"o":"m 1139 729 l 918 729 l 835 159 l 825 159 l 707 729 l 433 729 l 315 159 l 304 159 l 225 729 l 1 729 l 130 0 l 470 0 l 568 519 l 576 519 l 677 0 l 1013 0 l 1139 729 "},"$":{"x_min":31.3125,"x_max":948.703125,"ha":1000,"o":"m 420 641 b 289 730 313 647 289 656 b 420 833 289 825 336 833 l 552 833 b 676 730 642 833 676 823 l 914 730 b 552 1050 914 1016 766 1037 l 552 1163 l 420 1163 l 420 1050 b 44 730 136 1050 44 995 b 420 427 44 519 91 450 l 552 418 b 703 315 680 406 703 391 b 552 208 703 208 651 208 l 420 208 b 276 343 318 208 276 213 l 31 343 b 420 -8 31 41 170 -8 l 420 -136 l 552 -136 l 552 -8 b 948 325 835 -8 948 69 b 552 629 948 598 797 609 l 420 641 "},"∫":{"x_min":13.609375,"x_max":607.0625,"ha":635,"o":"m 607 1244 b 506 1263 588 1252 545 1263 b 313 1194 435 1263 360 1243 b 210 859 242 1125 210 1029 b 238 150 210 609 238 418 b 191 -69 238 23 221 -31 b 115 -101 172 -91 144 -101 b 40 -84 85 -101 58 -91 l 13 -231 b 148 -256 42 -245 99 -256 b 363 -140 231 -256 315 -223 b 421 147 396 -83 421 12 b 396 836 421 409 396 598 b 436 1075 396 956 404 1033 b 522 1115 455 1101 488 1115 b 583 1102 544 1115 567 1109 l 607 1244 "},"\\":{"x_min":42.28125,"x_max":829,"ha":889,"o":"m 642 -156 l 829 -156 l 228 1041 l 42 1041 l 642 -156 "},"Ì":{"x_min":47.640625,"x_max":393.359375,"ha":450,"o":"m 356 1041 l 84 1041 l 84 0 l 356 0 l 356 1041 m 115 1362 l 47 1208 l 355 1109 l 393 1195 l 115 1362 "},"µ":{"x_min":73.5,"x_max":759.5,"ha":854,"o":"m 759 0 l 759 729 l 525 729 l 525 280 b 393 175 525 208 455 175 b 307 294 314 175 307 227 l 307 729 l 73 729 l 73 -315 l 307 -315 l 307 -8 b 529 140 415 -8 496 27 l 540 140 l 532 0 l 759 0 "},"Ç":{"x_min":47.640625,"x_max":945.96875,"ha":1011,"o":"m 552 -56 l 378 -170 l 416 -243 l 612 -170 l 552 -56 m 665 394 l 665 363 b 498 233 665 241 611 233 b 328 448 334 233 328 293 l 328 611 b 498 808 328 759 343 808 b 664 708 590 808 654 801 l 664 668 l 944 668 l 944 708 b 528 1050 939 1020 808 1050 b 47 655 228 1050 47 1000 l 47 386 b 528 -8 47 5 250 -8 b 852 68 646 -8 759 -9 b 945 363 944 147 945 250 l 945 394 l 665 394 "},"’":{"x_min":62.609375,"x_max":296.9375,"ha":367,"o":"m 76 1041 l 76 808 l 160 808 b 62 715 160 738 140 716 l 62 611 b 296 808 249 609 300 665 l 296 1041 l 76 1041 "},"-":{"x_min":0,"x_max":370.21875,"ha":378,"o":"m 0 497 l 0 269 l 370 269 l 370 497 l 0 497 "},"Q":{"x_min":67.6875,"x_max":1106.21875,"ha":1106,"o":"m 589 525 l 481 369 l 662 249 b 541 233 627 235 586 233 b 348 401 406 233 348 242 l 348 589 b 540 808 348 774 369 808 b 734 589 711 808 734 774 l 734 419 l 589 525 m 994 -1 l 1106 153 l 994 230 b 1015 369 1006 265 1015 304 l 1015 630 b 541 1050 1015 972 851 1050 b 67 630 231 1050 67 972 l 67 411 b 541 -7 67 62 225 -7 b 893 80 652 -7 798 -3 l 994 -1 "},"M":{"x_min":83.03125,"x_max":1346.140625,"ha":1457,"o":"m 328 798 l 336 798 l 597 0 l 833 0 l 1091 798 l 1101 798 l 1073 0 l 1346 0 l 1346 1041 l 903 1041 l 718 387 l 709 387 l 514 1041 l 83 1041 l 83 0 l 355 0 l 328 798 "},"C":{"x_min":47.640625,"x_max":945.96875,"ha":1011,"o":"m 665 394 l 665 363 b 498 233 665 241 611 233 b 328 448 334 233 328 293 l 328 611 b 498 808 328 759 343 808 b 664 708 590 808 654 801 l 664 668 l 944 668 l 944 708 b 528 1050 939 1020 808 1050 b 47 655 228 1050 47 1000 l 47 386 b 528 -8 47 5 250 -8 b 852 68 646 -8 759 -9 b 945 363 944 147 945 250 l 945 394 l 665 394 "},"œ":{"x_min":43.5625,"x_max":1205.953125,"ha":1278,"o":"m 741 455 b 853 591 744 551 770 591 b 971 455 932 591 971 563 l 741 455 m 507 363 b 393 175 507 213 499 175 b 277 363 298 175 277 194 b 393 554 277 525 284 554 b 507 363 504 554 507 525 m 378 737 b 43 363 87 737 43 643 b 378 -8 43 80 92 -8 b 623 98 509 -8 570 0 l 631 98 b 857 -8 662 -6 773 -8 b 1109 34 960 -8 1048 0 b 1205 243 1170 70 1205 133 l 975 243 b 857 158 975 166 929 158 b 741 323 760 158 741 195 l 1205 323 l 1205 363 b 857 737 1205 661 1125 737 b 631 640 782 737 669 737 l 626 640 b 378 737 583 733 465 737 "},"!":{"x_min":111.609375,"x_max":364.78125,"ha":485,"o":"m 348 241 l 127 241 l 127 0 l 348 0 l 348 241 m 364 1041 l 111 1041 l 121 409 l 355 409 l 364 1041 "},"ç":{"x_min":41.890625,"x_max":729.25,"ha":774,"o":"m 436 -56 l 262 -170 l 300 -243 l 496 -170 l 436 -56 m 495 291 b 383 175 495 201 489 175 b 276 363 295 175 276 193 b 383 554 276 530 300 554 b 476 533 432 554 459 548 b 495 455 492 518 496 494 l 729 455 b 383 737 729 715 589 737 b 41 363 90 737 41 611 b 383 -8 41 76 107 -8 b 650 40 510 -8 595 -1 b 729 291 706 80 729 155 l 495 291 "},"È":{"x_min":86.84375,"x_max":832.71875,"ha":942,"o":"m 359 813 l 823 813 l 823 1041 l 86 1041 l 86 0 l 832 0 l 832 227 l 359 227 l 359 430 l 794 430 l 794 623 l 359 623 l 359 813 m 356 1362 l 288 1208 l 595 1109 l 634 1195 l 356 1362 "},"ﬁ":{"x_min":27.21875,"x_max":827.5625,"ha":904,"o":"m 827 729 l 593 729 l 593 0 l 827 0 l 827 729 m 827 1041 l 593 1041 l 593 858 l 827 858 l 827 1041 m 504 1041 b 121 800 193 1044 121 991 l 121 729 l 27 729 l 27 554 l 121 554 l 121 0 l 355 0 l 355 554 l 514 554 l 514 729 l 355 729 l 355 755 b 461 866 355 847 357 866 b 504 859 476 866 491 863 l 504 1041 "},"{":{"x_min":32.671875,"x_max":491.359375,"ha":535,"o":"m 32 336 b 144 261 59 336 144 337 l 144 -23 b 298 -208 144 -151 249 -208 l 491 -208 l 491 -25 l 441 -25 b 378 45 378 -25 378 11 l 378 283 b 247 425 375 412 289 420 l 247 427 b 378 558 289 431 375 454 l 378 795 b 441 866 378 830 378 866 l 491 866 l 491 1050 l 298 1050 b 144 865 249 1050 144 993 l 144 580 b 32 519 144 519 59 519 l 32 336 "},"X":{"x_min":-22,"x_max":1019,"ha":1017,"o":"m 997 1041 l 684 1041 l 499 659 l 315 1041 l -2 1041 l 284 536 l -22 0 l 297 0 l 499 401 l 701 0 l 1019 0 l 715 536 l 997 1041 "},"ô":{"x_min":45.953125,"x_max":760.53125,"ha":824,"o":"m 402 737 b 45 363 104 737 45 662 b 402 -8 45 72 109 -8 b 760 363 699 -8 760 63 b 402 737 760 672 702 737 m 406 554 b 526 363 515 554 526 522 b 406 175 526 205 515 175 b 280 363 293 175 280 205 b 406 554 280 522 293 554 m 401 1050 l 157 898 l 194 819 l 401 905 l 616 819 l 650 898 l 401 1050 "},"¼":{"x_min":-51.203125,"x_max":1386.140625,"ha":1500,"o":"m 1330 624 l 1069 624 l 814 300 l 814 123 l 1161 123 l 1161 0 l 1330 0 l 1330 123 l 1386 123 l 1386 244 l 1330 244 l 1330 624 m 1161 244 l 953 244 l 1154 496 l 1161 496 l 1161 244 m 1077 1041 l 913 1041 l 310 0 l 474 0 l 1077 1041 m 397 1041 l 191 1041 l -51 852 l 49 746 l 221 894 l 221 419 l 397 419 l 397 1041 "},"#":{"x_min":116.046875,"x_max":864.984375,"ha":1000,"o":"m 384 1041 l 331 750 l 171 750 l 171 590 l 302 590 l 269 409 l 116 409 l 116 250 l 239 250 l 194 0 l 339 0 l 384 250 l 521 250 l 476 0 l 621 0 l 666 250 l 826 250 l 826 409 l 698 409 l 731 590 l 864 590 l 864 750 l 756 750 l 809 1041 l 666 1041 l 613 750 l 475 750 l 528 1041 l 384 1041 m 446 590 l 588 590 l 553 409 l 414 409 l 446 590 "},"Ê":{"x_min":86.90625,"x_max":832.796875,"ha":942,"o":"m 359 813 l 823 813 l 823 1041 l 86 1041 l 86 0 l 832 0 l 832 227 l 359 227 l 359 430 l 794 430 l 794 623 l 359 623 l 359 813 m 458 1362 l 214 1211 l 251 1131 l 458 1218 l 673 1131 l 707 1211 l 458 1362 "},")":{"x_min":77.578125,"x_max":446.4375,"ha":535,"o":"m 446 600 b 77 1050 443 895 446 1050 l 77 822 b 187 645 179 822 187 761 l 187 195 b 77 19 187 106 186 19 l 77 -208 b 446 233 431 -208 446 -88 l 446 600 "},"Å":{"x_min":-16.4375,"x_max":1014.453125,"ha":1018,"o":"m 683 179 l 736 0 l 1014 0 l 704 1041 l 289 1041 l -16 0 l 266 0 l 317 179 l 683 179 m 629 381 l 375 381 l 499 833 l 502 833 l 629 381 m 366 1234 b 499 1098 366 1159 426 1098 b 631 1234 571 1098 631 1159 b 499 1369 631 1309 571 1369 b 366 1234 426 1369 366 1309 m 436 1234 b 498 1297 436 1269 464 1297 b 561 1234 531 1297 561 1269 b 498 1170 561 1200 531 1170 b 436 1234 464 1170 436 1200 "},"ø":{"x_min":-2.5625,"x_max":823.640625,"ha":854,"o":"m 541 395 l 541 330 b 418 175 541 213 525 175 b 307 223 369 175 325 180 l 541 395 m 295 333 l 295 463 b 418 553 295 524 324 553 b 529 502 456 553 518 553 l 295 333 m -2 0 l 115 86 b 418 -8 183 -8 311 -8 b 776 404 740 -8 776 82 b 763 560 776 456 777 509 l 823 605 l 823 723 l 722 646 b 418 737 658 737 525 737 b 61 402 149 737 61 682 b 76 172 61 326 62 247 l -2 115 l -2 0 "},"â":{"x_min":55.953125,"x_max":754.203125,"ha":846,"o":"m 392 301 b 520 234 468 301 520 295 b 392 145 520 158 490 145 b 290 225 356 145 290 145 b 392 301 290 291 334 301 m 520 0 l 754 0 l 754 455 b 413 737 754 706 653 737 b 84 512 246 737 84 738 l 318 512 b 413 591 318 577 355 591 b 520 480 516 591 520 548 l 520 365 l 509 365 b 314 447 483 448 381 447 b 55 218 145 447 55 393 b 314 -8 55 31 151 -8 b 520 108 396 -8 502 8 l 528 108 l 520 0 m 412 1050 l 168 898 l 205 819 l 412 905 l 627 819 l 661 898 l 412 1050 "},"}":{"x_min":32.671875,"x_max":491.359375,"ha":535,"o":"m 491 519 b 379 580 464 519 379 519 l 379 865 b 225 1050 379 993 274 1050 l 32 1050 l 32 866 l 83 866 b 145 795 145 866 145 830 l 145 558 b 276 427 148 454 234 431 l 276 425 b 145 283 234 420 148 412 l 145 45 b 83 -25 145 11 145 -25 l 32 -25 l 32 -208 l 225 -208 b 379 -23 274 -208 379 -151 l 379 261 b 491 336 379 337 464 336 l 491 519 "},"‰":{"x_min":31.3125,"x_max":1724.53125,"ha":1792,"o":"m 1724 333 b 1498 520 1721 500 1657 520 b 1282 331 1340 520 1286 498 l 1282 179 b 1499 -8 1286 12 1340 -8 b 1724 180 1657 -8 1721 13 l 1724 333 m 1588 201 b 1498 112 1588 113 1566 112 b 1418 201 1431 112 1418 113 l 1418 316 b 1498 400 1418 398 1431 400 b 1588 316 1572 400 1588 398 l 1588 201 m 1203 333 b 977 520 1200 500 1136 520 b 760 331 819 520 764 498 l 760 179 b 978 -8 764 12 819 -8 b 1203 180 1136 -8 1200 13 l 1203 333 m 1067 201 b 977 112 1067 113 1045 112 b 896 201 910 112 896 113 l 896 316 b 977 400 896 398 910 400 b 1067 316 1050 400 1067 398 l 1067 201 m 473 862 b 247 1050 470 1029 406 1050 b 31 861 89 1050 35 1027 l 31 708 b 249 520 35 541 89 520 b 473 709 406 520 470 543 l 473 862 m 337 730 b 247 641 337 643 315 641 b 167 730 181 641 167 643 l 167 845 b 247 929 167 927 181 929 b 337 845 321 929 337 927 l 337 730 m 1009 1041 l 846 1041 l 243 0 l 406 0 l 1009 1041 "},"Ä":{"x_min":-16.3125,"x_max":1014.28125,"ha":1018,"o":"m 683 179 l 736 0 l 1014 0 l 703 1041 l 289 1041 l -16 0 l 266 0 l 317 179 l 683 179 m 629 381 l 375 381 l 499 833 l 502 833 l 629 381 m 430 1301 l 281 1301 l 281 1158 l 430 1158 l 430 1301 m 716 1301 l 567 1301 l 567 1158 l 716 1158 l 716 1301 "},"¸":{"x_min":102,"x_max":336.109375,"ha":447,"o":"m 276 -57 l 102 -170 l 140 -243 l 336 -170 l 276 -57 "},"a":{"x_min":55.8125,"x_max":754.0625,"ha":846,"o":"m 392 301 b 519 234 468 301 519 295 b 392 145 519 158 490 145 b 289 225 356 145 289 145 b 392 301 289 291 334 301 m 519 0 l 754 0 l 754 455 b 413 737 754 706 653 737 b 84 512 246 737 84 738 l 318 512 b 413 591 318 577 355 591 b 519 480 515 591 519 548 l 519 365 l 509 365 b 314 447 483 448 381 447 b 55 218 145 447 55 393 b 314 -8 55 31 151 -8 b 519 108 396 -8 502 8 l 528 108 l 519 0 "},"—":{"x_min":0,"x_max":1361.109375,"ha":1389,"o":"m 0 497 l 0 269 l 1361 269 l 1361 497 l 0 497 "},"=":{"x_min":68.0625,"x_max":748.609375,"ha":833,"o":"m 68 623 l 68 463 l 748 463 l 748 623 l 68 623 m 68 304 l 68 144 l 748 144 l 748 304 l 68 304 "},"N":{"x_min":83.03125,"x_max":1102.5,"ha":1210,"o":"m 338 800 l 349 800 l 638 0 l 1102 0 l 1102 1041 l 830 1041 l 846 241 l 835 241 l 543 1041 l 83 1041 l 83 0 l 355 0 l 338 800 "},"˚":{"x_min":102.078125,"x_max":367.5,"ha":479,"o":"m 102 922 b 235 786 102 847 161 786 b 367 922 307 786 367 847 b 235 1056 367 997 307 1056 b 102 922 161 1056 102 997 m 172 922 b 234 984 172 956 200 984 b 296 922 266 984 296 956 b 234 858 296 887 266 858 b 172 922 200 858 172 887 "},"ú":{"x_min":68.921875,"x_max":754.921875,"ha":854,"o":"m 754 0 l 754 729 l 520 729 l 520 280 b 388 175 520 208 451 175 b 303 294 309 175 303 227 l 303 729 l 68 729 l 68 230 b 311 -8 68 52 169 -8 b 524 140 410 -8 492 27 l 535 140 l 527 0 l 754 0 m 523 1050 l 245 883 l 283 797 l 591 895 l 523 1050 "},"⁄":{"x_min":-235,"x_max":531,"ha":303,"o":"m 531 1041 l 367 1041 l -235 0 l -71 0 l 531 1041 "},"2":{"x_min":84.390625,"x_max":890.171875,"ha":1000,"o":"m 890 216 l 343 216 b 608 384 343 356 401 327 b 888 722 822 444 888 488 b 487 1050 888 1015 726 1050 b 84 712 227 1050 84 995 l 84 661 l 343 661 l 343 712 b 487 833 344 823 363 833 b 630 718 596 834 630 822 b 443 572 630 611 617 613 b 84 216 134 498 84 458 l 84 0 l 890 0 l 890 216 "},"ü":{"x_min":69.421875,"x_max":755.421875,"ha":854,"o":"m 755 0 l 755 729 l 521 729 l 521 280 b 389 175 521 208 451 175 b 303 294 310 175 303 227 l 303 729 l 69 729 l 69 230 b 311 -8 69 52 170 -8 b 525 140 411 -8 492 27 l 536 140 l 528 0 l 755 0 m 349 988 l 201 988 l 201 845 l 349 845 l 349 988 m 635 988 l 487 988 l 487 845 l 635 845 l 635 988 "},"¯":{"x_min":102.078125,"x_max":529.46875,"ha":644,"o":"m 102 980 l 102 850 l 529 850 l 529 980 l 102 980 "},"Z":{"x_min":31.3125,"x_max":865.671875,"ha":915,"o":"m 865 1041 l 62 1041 l 62 800 l 513 800 l 513 791 l 31 234 l 31 0 l 865 0 l 865 241 l 377 241 l 377 250 l 865 808 l 865 1041 "},"u":{"x_min":69.421875,"x_max":755.421875,"ha":854,"o":"m 755 0 l 755 729 l 521 729 l 521 280 b 389 175 521 208 451 175 b 303 294 310 175 303 227 l 303 729 l 69 729 l 69 230 b 311 -8 69 52 170 -8 b 525 140 411 -8 492 27 l 536 140 l 528 0 l 755 0 "},"˜":{"x_min":102,"x_max":694.078125,"ha":813,"o":"m 582 1018 b 511 954 568 988 547 954 b 405 1002 477 954 443 977 b 278 1049 368 1026 327 1049 b 102 916 195 1049 140 984 l 213 856 b 295 918 231 889 254 918 b 391 871 325 918 355 894 b 526 824 428 847 472 824 b 694 961 609 824 660 892 l 582 1018 "},"Ó":{"x_min":44.921875,"x_max":989.53125,"ha":1056,"o":"m 517 -8 b 989 373 793 -8 989 52 l 989 668 b 517 1050 989 988 793 1050 b 44 668 240 1050 44 988 l 44 373 b 517 -8 44 52 240 -8 m 517 233 b 325 404 375 233 329 248 l 325 638 b 517 808 329 793 375 808 b 709 638 658 808 709 793 l 709 404 b 517 233 709 248 658 233 m 622 1362 l 344 1195 l 382 1109 l 690 1208 l 622 1362 "},"k":{"x_min":74.859375,"x_max":794.890625,"ha":822,"o":"m 308 1041 l 74 1041 l 74 0 l 308 0 l 308 295 l 349 295 l 521 0 l 794 0 l 547 379 l 748 729 l 491 729 l 349 455 l 308 455 l 308 1041 "},"ˇ":{"x_min":102.28125,"x_max":595,"ha":711,"o":"m 345 819 l 595 970 l 560 1050 l 345 963 l 139 1050 l 102 970 l 345 819 "},"Ù":{"x_min":85.78125,"x_max":965.0625,"ha":1071,"o":"m 692 1041 l 692 365 b 537 233 692 243 653 233 b 358 352 423 233 358 234 l 358 1041 l 85 1041 l 85 347 b 537 -8 85 97 129 -8 b 965 347 837 -8 965 69 l 965 1041 l 692 1041 m 420 1362 l 352 1208 l 660 1109 l 698 1195 l 420 1362 "},"Ÿ":{"x_min":-21.78125,"x_max":985.453125,"ha":983,"o":"m 985 1041 l 669 1041 l 481 640 l 472 640 l 289 1041 l -21 1041 l 340 365 l 340 0 l 612 0 l 612 365 l 985 1041 m 413 1301 l 265 1301 l 265 1158 l 413 1158 l 413 1301 m 699 1301 l 551 1301 l 551 1158 l 699 1158 l 699 1301 "},"€":{"x_min":6.8125,"x_max":969.109375,"ha":1000,"o":"m 969 951 b 635 1050 862 1054 698 1050 b 153 698 375 1050 168 1002 l 63 698 l 6 556 l 152 556 l 152 500 l 66 500 l 9 358 l 152 358 b 635 -8 160 6 363 -8 b 892 59 715 -8 828 16 l 892 315 b 632 219 853 276 775 219 b 415 358 475 219 427 259 l 733 358 l 790 500 l 411 500 l 411 556 l 811 556 l 867 698 l 415 698 b 632 820 428 784 483 820 b 882 731 714 820 811 818 l 969 951 "},"¢":{"x_min":142.921875,"x_max":816.75,"ha":1000,"o":"m 537 -15 l 537 109 b 816 416 784 109 816 198 l 598 416 b 485 293 600 325 575 293 b 381 497 386 293 381 311 b 485 679 381 650 394 679 b 598 579 574 679 594 641 l 816 579 b 537 862 819 788 740 862 l 537 966 l 434 966 l 434 862 b 142 497 178 862 142 733 b 434 109 142 240 183 109 l 434 -15 l 537 -15 "},"Ω":{"x_min":66.6875,"x_max":1190.96875,"ha":1285,"o":"m 303 175 l 66 175 l 66 0 l 553 0 l 553 133 b 325 523 426 195 325 336 b 632 862 325 723 455 862 b 933 530 820 862 933 704 b 705 133 933 319 830 206 l 705 0 l 1190 0 l 1190 175 l 948 175 l 948 179 b 1169 572 1065 258 1169 381 b 631 1036 1169 812 969 1036 b 87 569 304 1036 87 826 b 303 179 87 379 200 248 l 303 175 "},"ß":{"x_min":77.578125,"x_max":793.53125,"ha":857,"o":"m 311 0 l 311 784 b 416 890 311 869 348 890 b 534 801 490 890 534 872 b 436 729 534 737 490 729 l 411 729 l 411 569 l 432 569 b 559 340 556 569 559 468 b 449 158 559 194 541 158 b 386 168 427 158 406 161 l 386 0 b 509 -8 427 -2 468 -8 b 793 340 745 -8 793 125 b 588 638 793 497 773 636 l 588 650 b 751 830 690 662 751 722 b 416 1050 751 1040 582 1050 b 77 784 209 1050 77 1005 l 77 0 l 311 0 "},"é":{"x_min":40.921875,"x_max":739.171875,"ha":797,"o":"m 275 455 b 386 570 277 551 303 570 b 505 455 465 570 505 563 l 275 455 m 509 243 b 390 158 509 166 462 158 b 275 323 294 158 275 195 l 739 323 l 739 363 b 390 737 739 661 658 737 b 40 363 103 737 40 644 b 390 -8 40 91 108 -8 b 642 34 494 -8 581 0 b 739 243 703 70 739 133 l 509 243 m 495 1050 l 217 883 l 255 797 l 563 895 l 495 1050 "},"s":{"x_min":43.5625,"x_max":743.171875,"ha":803,"o":"m 709 522 l 709 556 b 393 737 709 736 524 737 b 43 498 194 737 43 733 b 393 281 43 350 96 281 b 515 209 475 281 515 281 b 393 145 515 152 499 145 b 277 227 336 145 277 145 l 43 227 b 393 -8 43 -12 208 -8 b 743 237 581 -8 743 23 b 393 461 743 441 635 455 b 270 525 273 463 270 488 b 393 583 270 568 270 583 b 451 576 412 583 434 583 b 488 522 469 568 484 552 l 709 522 "},"B":{"x_min":81.671875,"x_max":956.859375,"ha":1025,"o":"m 81 0 l 623 0 b 956 290 839 0 956 34 b 779 523 956 420 931 513 l 779 534 b 940 775 914 556 940 643 b 617 1041 940 1002 820 1041 l 81 1041 l 81 0 m 353 813 l 582 813 b 668 725 658 811 668 787 b 549 625 668 641 645 625 l 353 625 l 353 813 m 353 431 l 564 431 b 684 333 653 431 684 419 b 559 227 684 248 647 227 l 353 227 l 353 431 "},"…":{"x_min":115.6875,"x_max":1245.421875,"ha":1389,"o":"m 336 241 l 115 241 l 115 0 l 336 0 l 336 241 m 790 241 l 570 241 l 570 0 l 790 0 l 790 241 m 1245 241 l 1024 241 l 1024 0 l 1245 0 l 1245 241 "},"?":{"x_min":62.609375,"x_max":762.21875,"ha":840,"o":"m 491 368 l 491 409 b 564 495 491 451 507 470 b 762 781 709 561 762 601 b 419 1050 762 1018 627 1050 b 62 781 201 1050 66 1019 l 62 738 l 296 738 l 296 781 b 419 866 296 859 349 866 b 528 781 492 866 528 855 b 445 663 528 705 492 687 l 396 640 b 257 409 270 576 257 538 l 257 368 l 491 368 m 484 241 l 264 241 l 264 0 l 484 0 l 484 241 "},"H":{"x_min":87.109375,"x_max":986.8125,"ha":1094,"o":"m 986 1041 l 714 1041 l 714 650 l 359 650 l 359 1041 l 87 1041 l 87 0 l 359 0 l 359 408 l 714 408 l 714 0 l 986 0 l 986 1041 "},"î":{"x_min":-70.78125,"x_max":421.9375,"ha":357,"o":"m 292 729 l 58 729 l 58 0 l 292 0 l 292 729 m 172 1050 l -70 898 l -34 819 l 172 905 l 387 819 l 421 898 l 172 1050 "},"c":{"x_min":42.1875,"x_max":729.5625,"ha":774,"o":"m 495 291 b 383 175 495 201 490 175 b 276 363 295 175 276 193 b 383 554 276 530 300 554 b 476 533 432 554 460 548 b 495 455 492 518 496 494 l 729 455 b 383 737 729 715 589 737 b 42 363 91 737 42 611 b 383 -8 42 76 107 -8 b 650 40 510 -8 596 -1 b 729 291 706 80 729 155 l 495 291 "},"¶":{"x_min":0,"x_max":970.46875,"ha":1000,"o":"m 970 -315 l 970 1041 l 348 1041 b 0 656 95 1041 0 931 b 362 270 0 352 62 270 l 539 270 l 539 -315 l 702 -315 l 702 840 l 807 840 l 807 -315 l 970 -315 m 539 472 l 404 472 b 251 656 258 472 251 505 b 402 840 251 798 257 840 l 539 840 l 539 472 "},"−":{"x_min":68.0625,"x_max":748.609375,"ha":833,"o":"m 68 304 l 748 304 l 748 463 l 68 463 l 68 304 "},"≠":{"x_min":78.09375,"x_max":837.890625,"ha":933,"o":"m 675 774 l 575 820 l 493 641 l 78 641 l 78 514 l 440 514 l 349 312 l 78 312 l 78 185 l 295 185 l 233 49 l 334 1 l 417 185 l 837 185 l 837 312 l 470 312 l 562 514 l 837 514 l 837 641 l 616 641 l 675 774 "},"•":{"x_min":153.765625,"x_max":664.21875,"ha":833,"o":"m 664 520 b 408 781 664 665 549 781 b 153 520 265 781 151 665 b 408 261 153 375 268 261 b 664 520 549 261 664 377 "},"¥":{"x_min":12.25,"x_max":967.75,"ha":1000,"o":"m 826 775 l 967 1041 l 668 1041 l 490 640 l 480 640 l 307 1041 l 12 1041 l 149 775 l 25 775 l 25 591 l 243 591 l 299 483 l 25 483 l 25 300 l 348 300 l 348 0 l 620 0 l 620 300 l 954 300 l 954 483 l 671 483 l 728 591 l 954 591 l 954 775 l 826 775 "},"(":{"x_min":77.578125,"x_max":446.4375,"ha":535,"o":"m 77 233 b 446 -208 77 -88 92 -208 l 446 19 b 336 195 337 19 336 106 l 336 645 b 446 822 336 761 344 822 l 446 1050 b 77 600 77 1050 80 895 l 77 233 "},"U":{"x_min":85.75,"x_max":965.03125,"ha":1071,"o":"m 692 1041 l 692 365 b 537 233 692 243 653 233 b 357 352 423 233 357 234 l 357 1041 l 85 1041 l 85 347 b 537 -8 85 97 129 -8 b 965 347 837 -8 965 69 l 965 1041 l 692 1041 "},"◊":{"x_min":76,"x_max":928,"ha":1025,"o":"m 928 506 l 589 1090 l 414 1090 l 76 506 l 412 -73 l 586 -73 l 928 506 m 729 502 l 533 151 b 504 88 523 134 511 104 l 500 88 b 473 152 495 104 484 130 l 271 511 l 467 859 b 497 926 478 880 491 906 l 500 926 b 530 859 506 908 519 879 l 729 502 "},"Ñ":{"x_min":82.96875,"x_max":1102.4375,"ha":1210,"o":"m 338 799 l 349 799 l 638 0 l 1102 0 l 1102 1041 l 830 1041 l 846 241 l 835 241 l 543 1041 l 82 1041 l 82 0 l 355 0 l 338 799 m 777 1330 b 706 1266 763 1300 741 1266 b 600 1314 672 1266 638 1289 b 473 1361 563 1338 522 1361 b 296 1228 390 1361 334 1296 l 408 1168 b 489 1230 425 1201 449 1230 b 586 1183 519 1230 549 1206 b 721 1136 623 1159 666 1136 b 888 1273 804 1136 854 1204 l 777 1330 "},"F":{"x_min":74.859375,"x_max":798.96875,"ha":856,"o":"m 347 813 l 798 813 l 798 1041 l 74 1041 l 74 0 l 347 0 l 347 381 l 763 381 l 763 609 l 347 609 l 347 813 "},"­":{"x_min":0,"x_max":370.21875,"ha":378,"o":"m 0 497 l 0 269 l 370 269 l 370 497 l 0 497 "},":":{"x_min":122.5,"x_max":343,"ha":500,"o":"m 343 241 l 122 241 l 122 0 l 343 0 l 343 241 m 343 729 l 122 729 l 122 487 l 343 487 l 343 729 "},"Û":{"x_min":85.84375,"x_max":965.125,"ha":1071,"o":"m 692 1041 l 692 365 b 537 233 692 243 653 233 b 358 352 423 233 358 234 l 358 1041 l 85 1041 l 85 347 b 537 -8 85 97 129 -8 b 965 347 837 -8 965 69 l 965 1041 l 692 1041 m 522 1362 l 279 1211 l 315 1131 l 522 1218 l 737 1131 l 771 1211 l 522 1362 "},"*":{"x_min":210.96875,"x_max":769.03125,"ha":1000,"o":"m 769 783 l 729 916 l 552 854 l 552 1041 l 426 1041 l 426 854 l 254 916 l 210 794 l 383 730 l 277 580 l 381 504 l 495 658 l 601 502 l 700 580 l 598 729 l 769 783 "},"†":{"x_min":125.21875,"x_max":854.78125,"ha":1000,"o":"m 607 1041 l 372 1041 l 372 737 l 125 737 l 125 554 l 372 554 l 372 -315 l 607 -315 l 607 554 l 854 554 l 854 737 l 607 737 l 607 1041 "},"∕":{"x_min":-235,"x_max":531,"ha":303,"o":"m 531 1041 l 367 1041 l -235 0 l -71 0 l 531 1041 "},"°":{"x_min":68.046875,"x_max":476.390625,"ha":556,"o":"m 476 841 b 272 1050 476 955 383 1050 b 68 841 159 1050 66 955 b 272 633 68 726 159 633 b 476 841 383 633 476 726 m 382 841 b 272 729 382 779 332 729 b 161 841 210 729 161 779 b 270 954 160 902 210 954 b 382 841 332 954 382 902 "},"V":{"x_min":-22,"x_max":989,"ha":988,"o":"m 482 238 l 474 238 l 254 1041 l -22 1041 l 266 0 l 691 0 l 989 1041 l 707 1041 l 482 238 "},"å":{"x_min":55.8125,"x_max":754.0625,"ha":846,"o":"m 392 301 b 519 234 468 301 519 295 b 392 145 519 158 490 145 b 289 225 356 145 289 145 b 392 301 289 291 334 301 m 519 0 l 754 0 l 754 455 b 413 737 754 706 653 737 b 84 512 246 737 84 738 l 318 512 b 413 591 318 577 355 591 b 519 480 515 591 519 548 l 519 365 l 509 365 b 314 447 483 448 381 447 b 55 218 145 447 55 393 b 314 -8 55 31 151 -8 b 519 108 396 -8 502 8 l 528 108 l 519 0 m 281 922 b 415 786 281 847 341 786 b 547 922 487 786 547 847 b 415 1056 547 997 487 1056 b 281 922 341 1056 281 997 m 352 922 b 413 984 352 956 379 984 b 476 922 446 984 476 956 b 413 858 476 887 446 858 b 352 922 379 858 352 887 "}," ":{"x_min":0,"x_max":0,"ha":500},"0":{"x_min":65.328125,"x_max":914.671875,"ha":1000,"o":"m 490 1050 b 65 684 274 1050 65 1036 l 65 356 b 490 -8 65 5 274 -8 b 914 356 705 -8 914 5 l 914 684 b 490 1050 914 1036 705 1050 m 490 820 b 656 640 624 820 656 818 l 656 401 b 490 220 656 223 624 220 b 323 401 355 220 323 223 l 323 640 b 490 820 323 818 355 820 "},"”":{"x_min":62.609375,"x_max":603.1875,"ha":679,"o":"m 76 1041 l 76 808 l 160 808 b 62 715 160 738 140 716 l 62 611 b 296 808 249 609 300 665 l 296 1041 l 76 1041 m 382 1041 l 382 808 l 466 808 b 368 715 466 738 446 716 l 368 611 b 602 808 555 609 607 665 l 602 1041 l 382 1041 "},"¾":{"x_min":34.765625,"x_max":1435.359375,"ha":1500,"o":"m 1379 625 l 1118 625 l 863 301 l 863 123 l 1210 123 l 1210 0 l 1379 0 l 1379 123 l 1435 123 l 1435 244 l 1379 244 l 1379 625 m 1210 244 l 1002 244 l 1203 497 l 1210 497 l 1210 244 m 1153 1041 l 990 1041 l 387 0 l 550 0 l 1153 1041 m 260 679 l 302 679 b 403 620 395 679 403 663 b 302 544 403 548 375 544 b 203 618 241 544 203 548 l 203 638 l 34 638 l 34 605 b 294 413 34 427 157 413 b 572 600 460 413 572 438 b 462 734 572 672 547 730 l 462 741 b 564 881 543 751 564 812 b 294 1050 564 1041 418 1050 b 41 856 140 1050 41 1034 l 41 834 l 210 834 l 210 847 b 302 919 210 918 238 919 b 395 851 392 919 395 901 b 302 800 395 808 388 800 l 260 800 l 260 679 "},"@":{"x_min":21.78125,"x_max":1013.796875,"ha":1056,"o":"m 396 487 b 529 637 396 559 451 637 b 638 519 596 637 638 587 b 499 365 638 440 583 365 b 396 487 432 365 396 422 m 677 703 b 510 785 637 760 579 785 b 232 465 341 785 232 629 b 461 219 232 328 341 219 b 592 284 507 219 559 245 l 594 281 b 673 213 592 235 628 213 b 1013 618 858 213 1013 408 b 541 1050 1013 867 770 1050 b 21 518 251 1050 21 816 b 549 -8 21 213 257 -8 b 955 209 718 -8 857 71 l 820 209 b 560 116 754 156 664 116 b 157 518 328 116 157 272 b 537 925 157 748 308 925 b 902 572 745 925 902 797 b 770 317 902 422 828 317 b 754 367 741 317 749 341 l 820 774 l 691 774 l 677 703 "},"ö":{"x_min":46.28125,"x_max":760.859375,"ha":824,"o":"m 402 737 b 46 363 104 737 46 662 b 402 -8 46 72 110 -8 b 760 363 699 -8 760 63 b 402 737 760 672 702 737 m 406 554 b 526 363 515 554 526 522 b 406 175 526 205 515 175 b 280 363 294 175 280 205 b 406 554 280 522 294 554 m 334 988 l 186 988 l 186 845 l 334 845 l 334 988 m 620 988 l 472 988 l 472 845 l 620 845 l 620 988 "},"i":{"x_min":58.53125,"x_max":292.640625,"ha":357,"o":"m 292 729 l 58 729 l 58 0 l 292 0 l 292 729 m 292 1041 l 58 1041 l 58 858 l 292 858 l 292 1041 "},"≤":{"x_min":77.578125,"x_max":837.078125,"ha":933,"o":"m 834 166 l 834 308 l 216 575 l 216 577 l 833 841 l 833 983 l 83 643 l 83 508 l 834 166 m 837 -16 l 837 112 l 77 112 l 77 -16 l 837 -16 "},"Õ":{"x_min":44.765625,"x_max":989.375,"ha":1056,"o":"m 517 -8 b 989 373 793 -8 989 52 l 989 668 b 517 1049 989 988 793 1049 b 44 668 240 1049 44 988 l 44 373 b 517 -8 44 52 240 -8 m 517 233 b 325 404 375 233 329 248 l 325 638 b 517 808 329 793 375 808 b 708 638 658 808 708 793 l 708 404 b 517 233 708 248 658 233 m 702 1330 b 631 1266 688 1300 666 1266 b 525 1314 597 1266 563 1289 b 398 1361 488 1338 447 1361 b 221 1228 315 1361 259 1296 l 333 1168 b 414 1230 351 1201 374 1230 b 511 1183 444 1230 474 1206 b 646 1136 548 1159 591 1136 b 813 1273 729 1136 779 1204 l 702 1330 "},"þ":{"x_min":69.421875,"x_max":784,"ha":858,"o":"m 303 1041 l 69 1041 l 69 -315 l 303 -315 l 303 109 l 314 109 b 513 -8 352 9 427 -8 b 784 302 709 -8 784 80 l 784 469 b 513 737 784 662 686 737 b 311 616 411 737 336 712 l 303 616 l 303 1041 m 420 554 b 549 363 544 554 549 505 b 420 175 549 198 517 175 b 303 363 311 175 303 241 b 420 554 303 518 321 554 "},"]":{"x_min":77.578125,"x_max":446.4375,"ha":535,"o":"m 446 -208 l 446 1050 l 77 1050 l 77 822 l 187 822 l 187 19 l 77 19 l 77 -208 l 446 -208 "},"m":{"x_min":78.9375,"x_max":1186.890625,"ha":1290,"o":"m 78 729 l 78 0 l 313 0 l 313 413 b 427 554 313 501 330 554 b 515 441 509 554 513 508 l 515 0 l 749 0 l 749 413 b 858 554 749 491 767 554 b 952 422 950 554 948 498 l 952 0 l 1186 0 l 1186 498 b 937 737 1186 668 1102 737 b 739 594 847 737 751 698 l 728 594 b 511 737 715 719 612 737 b 315 626 431 737 344 712 l 306 626 l 306 729 l 78 729 "},"8":{"x_min":74.859375,"x_max":905.140625,"ha":1000,"o":"m 487 429 b 646 322 628 429 646 419 b 487 208 646 230 639 208 b 333 318 370 208 333 227 b 487 429 333 416 362 429 m 490 -8 b 905 287 718 -8 905 12 b 735 527 905 411 867 509 l 735 537 b 890 762 858 577 890 622 b 490 1050 890 1030 709 1050 b 93 775 289 1050 93 1029 b 259 537 93 643 136 569 l 259 527 b 74 287 130 522 74 406 b 490 -8 74 16 272 -8 m 490 630 b 352 729 390 630 352 640 b 490 833 352 822 378 833 b 631 738 622 833 631 811 b 490 630 631 641 605 630 "},"ž":{"x_min":29.03125,"x_max":647,"ha":689,"o":"m 54 729 l 54 562 l 366 562 l 29 197 l 29 0 l 647 0 l 647 166 l 301 166 l 647 540 l 647 729 l 54 729 m 335 819 l 584 970 l 550 1050 l 335 963 l 128 1050 l 91 970 l 335 819 "},"R":{"x_min":76.828125,"x_max":953.390625,"ha":1031,"o":"m 349 518 l 349 800 l 560 800 b 673 680 649 800 673 773 b 560 518 673 562 677 518 l 349 518 m 76 0 l 349 0 l 349 276 l 560 276 b 671 145 641 276 674 223 l 671 0 l 943 0 l 943 209 b 760 394 943 327 871 390 l 760 405 b 953 726 953 451 953 552 b 602 1041 953 986 837 1037 l 76 1041 l 76 0 "},"á":{"x_min":55.921875,"x_max":754.171875,"ha":846,"o":"m 392 301 b 520 234 468 301 520 295 b 392 145 520 158 490 145 b 290 225 356 145 290 145 b 392 301 290 291 334 301 m 520 0 l 754 0 l 754 455 b 413 737 754 706 653 737 b 84 512 246 737 84 738 l 318 512 b 413 591 318 577 355 591 b 520 480 515 591 520 548 l 520 365 l 509 365 b 314 447 483 448 381 447 b 55 218 145 447 55 393 b 314 -8 55 31 151 -8 b 520 108 396 -8 502 8 l 528 108 l 520 0 m 520 1050 l 242 883 l 280 797 l 588 895 l 520 1050 "},"×":{"x_min":68,"x_max":749,"ha":833,"o":"m 68 608 l 288 383 l 68 158 l 187 35 l 408 260 l 629 35 l 749 158 l 528 383 l 749 608 l 629 729 l 408 505 l 187 729 l 68 608 "},"o":{"x_min":46.28125,"x_max":760.859375,"ha":824,"o":"m 402 737 b 46 363 104 737 46 662 b 402 -8 46 72 110 -8 b 760 363 699 -8 760 63 b 402 737 760 672 702 737 m 406 554 b 526 363 515 554 526 522 b 406 175 526 205 515 175 b 280 363 294 175 280 205 b 406 554 280 522 294 554 "},"5":{"x_min":88.46875,"x_max":891.53125,"ha":1000,"o":"m 88 302 b 477 -8 95 43 225 -8 b 891 374 773 -8 891 42 b 571 716 891 616 819 716 b 347 639 442 716 415 713 l 347 839 l 850 839 l 850 1041 l 112 1041 l 112 457 l 347 457 b 477 507 362 507 390 507 b 632 345 630 507 632 478 b 477 207 632 210 596 207 b 347 302 401 207 352 214 l 88 302 "},"õ":{"x_min":45.96875,"x_max":760.546875,"ha":824,"o":"m 402 737 b 45 364 104 737 45 662 b 402 -7 45 72 109 -7 b 760 364 699 -7 760 64 b 402 737 760 672 702 737 m 406 554 b 526 364 515 554 526 522 b 406 175 526 206 515 175 b 280 364 293 175 280 206 b 406 554 280 522 293 554 m 587 1018 b 516 954 574 988 552 954 b 410 1002 482 954 448 977 b 284 1049 373 1026 333 1049 b 107 916 201 1049 145 984 l 218 856 b 300 918 236 889 259 918 b 397 871 330 918 360 894 b 531 824 433 847 477 824 b 699 961 614 824 665 892 l 587 1018 "},"7":{"x_min":78.921875,"x_max":849.140625,"ha":1000,"o":"m 849 1041 l 78 1041 l 78 808 l 570 808 l 224 0 l 510 0 l 849 808 l 849 1041 "},"K":{"x_min":87.109375,"x_max":1063.03125,"ha":1044,"o":"m 359 1041 l 87 1041 l 87 0 l 359 0 l 359 408 l 441 408 l 725 0 l 1063 0 l 673 530 l 1033 1041 l 703 1041 l 441 650 l 359 650 l 359 1041 "},",":{"x_min":115.6875,"x_max":350.03125,"ha":500,"o":"m 129 233 l 129 0 l 213 0 b 115 -93 213 -69 193 -91 l 115 -197 b 349 0 302 -198 353 -143 l 349 233 l 129 233 "},"d":{"x_min":44.921875,"x_max":759.5,"ha":850,"o":"m 759 1041 l 525 1041 l 525 625 l 514 625 b 315 737 476 719 401 737 b 44 426 119 737 44 648 l 44 259 b 315 -8 44 66 142 -8 b 519 126 417 -8 492 16 l 530 126 l 525 0 l 759 0 l 759 1041 m 279 363 b 398 554 279 508 281 554 b 525 363 522 554 525 505 b 398 175 525 198 495 175 b 279 363 300 175 279 186 "},"¨":{"x_min":102.078125,"x_max":536.28125,"ha":651,"o":"m 250 988 l 102 988 l 102 845 l 250 845 l 250 988 m 536 988 l 387 988 l 387 845 l 536 845 l 536 988 "},"Ô":{"x_min":44.6875,"x_max":989.296875,"ha":1056,"o":"m 516 -8 b 989 373 793 -8 989 52 l 989 668 b 516 1050 989 988 793 1050 b 44 668 240 1050 44 988 l 44 373 b 516 -8 44 52 240 -8 m 516 233 b 325 404 375 233 329 248 l 325 638 b 516 808 329 793 375 808 b 708 638 658 808 708 793 l 708 404 b 516 233 708 248 658 233 m 514 1362 l 270 1211 l 307 1131 l 514 1218 l 729 1131 l 763 1211 l 514 1362 "},"E":{"x_min":87.109375,"x_max":833,"ha":942,"o":"m 359 813 l 823 813 l 823 1041 l 87 1041 l 87 0 l 833 0 l 833 227 l 359 227 l 359 430 l 794 430 l 794 623 l 359 623 l 359 813 "},"Y":{"x_min":-21.78125,"x_max":985.453125,"ha":983,"o":"m 985 1041 l 669 1041 l 481 640 l 472 640 l 289 1041 l -21 1041 l 340 365 l 340 0 l 612 0 l 612 365 l 985 1041 "},"\"":{"x_min":55.8125,"x_max":545.8125,"ha":614,"o":"m 55 1041 l 55 861 l 112 681 l 186 681 l 243 861 l 243 1041 l 55 1041 m 357 1041 l 357 861 l 415 681 l 488 681 l 545 861 l 545 1041 l 357 1041 "},"‹":{"x_min":60,"x_max":388,"ha":460,"o":"m 234 715 l 60 377 l 242 51 l 388 142 l 257 377 l 388 630 l 234 715 "},"˙":{"x_min":102.078125,"x_max":250.4375,"ha":360,"o":"m 250 988 l 102 988 l 102 845 l 250 845 l 250 988 "},"ê":{"x_min":40.953125,"x_max":739.203125,"ha":797,"o":"m 275 455 b 386 570 277 551 303 570 b 505 455 465 570 505 563 l 275 455 m 509 243 b 390 158 509 166 462 158 b 275 323 294 158 275 195 l 739 323 l 739 363 b 390 737 739 661 658 737 b 40 363 103 737 40 644 b 390 -8 40 91 109 -8 b 642 34 494 -8 581 0 b 739 243 703 70 739 133 l 509 243 m 388 1050 l 144 898 l 181 819 l 388 905 l 603 819 l 637 898 l 388 1050 "},"Ï":{"x_min":4.078125,"x_max":438.28125,"ha":450,"o":"m 356 1041 l 84 1041 l 84 0 l 356 0 l 356 1041 m 152 1301 l 4 1301 l 4 1158 l 152 1158 l 152 1301 m 438 1301 l 289 1301 l 289 1158 l 438 1158 l 438 1301 "},"„":{"x_min":59.890625,"x_max":600.46875,"ha":679,"o":"m 73 233 l 73 0 l 157 0 b 59 -93 157 -69 137 -91 l 59 -197 b 294 0 246 -198 298 -143 l 294 233 l 73 233 m 379 233 l 379 0 l 464 0 b 366 -93 464 -69 443 -91 l 366 -197 b 600 0 552 -198 604 -143 l 600 233 l 379 233 "},"Â":{"x_min":-16,"x_max":1014,"ha":1018,"o":"m 683 179 l 736 0 l 1014 0 l 703 1041 l 290 1041 l -16 0 l 267 0 l 317 179 l 683 179 m 628 381 l 375 381 l 499 833 l 502 833 l 628 381 m 496 1362 l 253 1211 l 290 1131 l 496 1218 l 711 1131 l 745 1211 l 496 1362 "},"Í":{"x_min":47.640625,"x_max":393.359375,"ha":450,"o":"m 356 1041 l 84 1041 l 84 0 l 356 0 l 356 1041 m 325 1362 l 47 1195 l 85 1109 l 393 1208 l 325 1362 "},"´":{"x_min":102,"x_max":447.71875,"ha":561,"o":"m 379 1050 l 102 883 l 140 797 l 447 895 l 379 1050 "},"ì":{"x_min":2.71875,"x_max":348.4375,"ha":357,"o":"m 292 729 l 58 729 l 58 0 l 292 0 l 292 729 m 70 1050 l 2 895 l 310 797 l 348 883 l 70 1050 "},"±":{"x_min":68.0625,"x_max":748.609375,"ha":833,"o":"m 329 729 l 329 565 l 68 565 l 68 405 l 329 405 l 329 234 l 485 234 l 485 405 l 748 405 l 748 565 l 485 565 l 485 729 l 329 729 m 68 0 l 748 0 l 748 159 l 68 159 l 68 0 "},"Ú":{"x_min":85.78125,"x_max":965.0625,"ha":1071,"o":"m 692 1041 l 692 365 b 537 233 692 243 653 233 b 358 352 423 233 358 234 l 358 1041 l 85 1041 l 85 347 b 537 -8 85 97 129 -8 b 965 347 837 -8 965 69 l 965 1041 l 692 1041 m 630 1362 l 352 1195 l 390 1109 l 698 1208 l 630 1362 "},"|":{"x_min":330.75,"x_max":487.28125,"ha":833,"o":"m 487 1041 l 330 1041 l 330 -347 l 487 -347 l 487 1041 "},"§":{"x_min":34.71875,"x_max":946.078125,"ha":1000,"o":"m 367 298 b 266 404 303 311 266 308 b 338 505 266 452 280 505 b 415 493 362 505 392 498 l 580 461 b 711 355 700 438 711 419 b 641 250 711 306 701 250 b 581 258 626 250 596 255 l 367 298 m 899 776 b 482 1050 899 1036 718 1050 b 61 777 105 1050 61 936 b 131 570 61 701 61 619 b 34 363 37 543 34 445 b 228 127 34 195 64 158 l 553 70 b 673 -23 633 55 673 50 b 482 -106 673 -86 648 -106 b 315 26 349 -106 319 -91 l 63 26 b 482 -323 63 -288 176 -323 b 946 -22 894 -323 946 -227 b 861 169 946 65 939 143 b 943 383 944 212 943 294 b 701 636 943 580 875 604 l 445 683 b 334 765 367 698 334 694 b 482 833 334 811 351 833 b 620 813 558 833 598 830 b 647 718 641 798 646 769 l 899 718 l 899 776 "},"Ý":{"x_min":-21.78125,"x_max":985.453125,"ha":983,"o":"m 985 1041 l 669 1041 l 481 640 l 472 640 l 289 1041 l -21 1041 l 340 365 l 340 0 l 612 0 l 612 365 l 985 1041 m 586 1362 l 308 1195 l 347 1109 l 654 1208 l 586 1362 "},"b":{"x_min":74.859375,"x_max":789.453125,"ha":851,"o":"m 74 1041 l 74 0 l 308 0 l 303 126 l 314 126 b 518 -8 341 16 416 -8 b 789 259 691 -8 789 66 l 789 426 b 518 737 789 648 714 737 b 319 625 432 737 357 719 l 308 625 l 308 1041 l 74 1041 m 438 175 b 308 365 314 175 308 223 b 438 554 308 530 341 554 b 555 365 547 554 555 487 b 438 175 555 211 537 175 "},"q":{"x_min":50.359375,"x_max":764.953125,"ha":860,"o":"m 764 -315 l 764 729 l 530 729 l 536 613 l 525 613 b 321 737 498 712 423 737 b 50 469 148 737 50 662 l 50 302 b 321 -8 50 80 125 -8 b 519 109 406 -8 481 9 l 530 109 l 530 -315 l 764 -315 m 401 554 b 530 363 525 554 530 505 b 401 175 530 198 498 175 b 284 363 292 175 284 241 b 401 554 284 518 302 554 "},"Ω":{"x_min":66.6875,"x_max":1190.96875,"ha":1285,"o":"m 303 175 l 66 175 l 66 0 l 553 0 l 553 133 b 325 523 426 195 325 336 b 632 862 325 723 455 862 b 933 530 820 862 933 704 b 705 133 933 319 830 206 l 705 0 l 1190 0 l 1190 175 l 948 175 l 948 179 b 1169 572 1065 258 1169 381 b 631 1036 1169 812 969 1036 b 87 569 304 1036 87 826 b 303 179 87 379 200 248 l 303 175 "},"Ö":{"x_min":44.921875,"x_max":989.53125,"ha":1056,"o":"m 517 -8 b 989 373 793 -8 989 52 l 989 668 b 517 1050 989 988 793 1050 b 44 668 240 1050 44 988 l 44 373 b 517 -8 44 52 240 -8 m 517 233 b 325 404 375 233 329 248 l 325 638 b 517 808 329 793 375 808 b 709 638 658 808 709 793 l 709 404 b 517 233 709 248 658 233 m 449 1301 l 300 1301 l 300 1158 l 449 1158 l 449 1301 m 735 1301 l 586 1301 l 586 1158 l 735 1158 l 735 1301 "},"ﬂ":{"x_min":27.21875,"x_max":827.5625,"ha":925,"o":"m 827 1041 l 593 1041 l 593 0 l 827 0 l 827 1041 m 514 729 l 355 729 l 355 755 b 461 866 355 847 357 866 b 504 859 476 866 491 863 l 504 1041 b 121 800 193 1044 121 991 l 121 729 l 27 729 l 27 554 l 121 554 l 121 0 l 355 0 l 355 554 l 514 554 l 514 729 "},"z":{"x_min":29.03125,"x_max":646.96875,"ha":689,"o":"m 54 729 l 54 562 l 366 562 l 29 197 l 29 0 l 646 0 l 646 166 l 301 166 l 646 540 l 646 729 l 54 729 "},"™":{"x_min":-5.4375,"x_max":1176,"ha":1194,"o":"m 1176 1041 l 975 1041 l 852 709 l 728 1041 l 528 1041 l 528 480 l 654 480 l 654 929 l 657 929 l 816 480 l 887 480 l 1046 929 l 1049 929 l 1049 480 l 1176 480 l 1176 1041 m 468 1041 l -5 1041 l -5 926 l 161 926 l 161 480 l 300 480 l 300 926 l 468 926 l 468 1041 "},"ã":{"x_min":55.96875,"x_max":754.21875,"ha":846,"o":"m 392 301 b 520 235 468 301 520 296 b 392 146 520 158 490 146 b 290 225 356 146 290 146 b 392 301 290 292 335 301 m 520 0 l 754 0 l 754 456 b 413 737 754 707 653 737 b 84 512 246 737 84 739 l 318 512 b 413 592 318 578 355 592 b 520 481 516 592 520 549 l 520 365 l 509 365 b 314 447 483 449 381 447 b 55 218 145 447 55 393 b 314 -7 55 32 151 -7 b 520 108 396 -7 502 8 l 528 108 l 520 0 m 599 1018 b 528 954 585 988 563 954 b 422 1002 494 954 460 977 b 295 1049 385 1026 344 1049 b 118 916 212 1049 156 984 l 230 856 b 311 918 247 889 271 918 b 408 871 341 918 371 894 b 543 824 445 847 488 824 b 710 961 626 824 676 892 l 599 1018 "},"æ":{"x_min":51.71875,"x_max":1214.109375,"ha":1288,"o":"m 749 455 b 861 587 752 551 778 587 b 980 455 940 587 980 563 l 749 455 m 387 302 b 515 236 464 302 515 297 b 387 147 515 159 485 147 b 285 226 352 147 285 147 b 387 302 285 293 330 302 m 515 365 l 504 365 b 310 447 479 447 377 447 b 51 218 141 447 51 393 b 310 -8 51 31 147 -8 b 602 101 435 -8 564 -5 l 611 101 b 865 -8 643 0 782 -8 b 1120 34 969 -8 1057 0 b 1214 243 1181 70 1214 133 l 984 243 b 865 158 984 166 937 158 b 749 323 769 158 749 195 l 1214 323 l 1214 363 b 865 737 1214 661 1133 737 b 645 638 804 737 665 733 l 638 638 b 409 737 612 737 465 737 b 80 512 242 737 80 738 l 314 512 b 409 591 314 577 351 591 b 515 480 511 591 515 548 l 515 365 "},"®":{"x_min":25.859375,"x_max":1063.03125,"ha":1111,"o":"m 544 -8 b 1063 520 830 -8 1063 227 b 544 1050 1063 813 830 1050 b 25 520 257 1050 25 813 b 544 -8 25 227 257 -8 m 544 112 b 144 520 321 112 144 294 b 544 929 144 747 321 929 b 944 520 763 929 944 747 b 544 112 944 294 763 112 m 666 472 b 819 627 766 479 819 522 b 601 802 819 779 730 802 l 321 802 l 321 230 l 439 230 l 439 465 l 544 465 l 669 230 l 803 230 l 666 472 m 439 556 l 439 711 l 575 711 b 700 643 630 711 700 711 b 604 556 700 570 666 555 l 439 556 "},"É":{"x_min":86.84375,"x_max":832.71875,"ha":942,"o":"m 359 813 l 823 813 l 823 1041 l 86 1041 l 86 0 l 832 0 l 832 227 l 359 227 l 359 430 l 794 430 l 794 623 l 359 623 l 359 813 m 565 1362 l 288 1195 l 326 1109 l 634 1208 l 565 1362 "},"~":{"x_min":68.0625,"x_max":748.609375,"ha":833,"o":"m 616 498 b 570 381 619 454 605 381 b 490 418 549 381 524 391 l 338 526 b 247 558 304 550 274 558 b 68 270 100 558 68 393 l 200 270 b 238 391 204 313 202 391 b 306 365 255 391 277 383 l 473 254 b 574 213 513 227 545 213 b 748 498 713 213 748 377 l 616 498 "},"³":{"x_min":39.46875,"x_max":577.109375,"ha":600,"o":"m 265 679 l 307 679 b 408 620 400 679 408 663 b 307 544 408 548 379 544 b 208 618 246 544 208 548 l 208 638 l 39 638 l 39 605 b 299 413 39 427 161 413 b 577 600 465 413 577 438 b 466 734 577 672 552 730 l 466 741 b 568 881 548 751 568 812 b 299 1050 568 1041 423 1050 b 46 856 145 1050 46 1034 l 46 834 l 215 834 l 215 847 b 307 919 215 918 243 919 b 400 851 397 919 400 901 b 307 800 400 808 393 800 l 265 800 l 265 679 "},"¡":{"x_min":111.609375,"x_max":364.78125,"ha":485,"o":"m 348 729 l 127 729 l 127 487 l 348 487 l 348 729 m 111 -315 l 364 -315 l 355 316 l 121 316 l 111 -315 "},"[":{"x_min":77.578125,"x_max":446.4375,"ha":535,"o":"m 77 1050 l 77 -208 l 446 -208 l 446 19 l 336 19 l 336 822 l 446 822 l 446 1050 l 77 1050 "},"L":{"x_min":78.9375,"x_max":777.203125,"ha":813,"o":"m 351 1041 l 78 1041 l 78 0 l 777 0 l 777 241 l 351 241 l 351 1041 "}," ":{"x_min":0,"x_max":0,"ha":500},"∑":{"x_min":32.96875,"x_max":934.015625,"ha":981,"o":"m 934 -140 l 934 52 l 340 52 l 340 58 l 694 458 l 371 823 l 371 829 l 901 829 l 901 1018 l 53 1018 l 53 870 l 433 433 l 32 -12 l 32 -140 l 934 -140 "},"%":{"x_min":31.3125,"x_max":1203.21875,"ha":1260,"o":"m 1203 333 b 977 520 1200 500 1136 520 b 760 331 819 520 764 498 l 760 179 b 978 -8 764 12 819 -8 b 1203 180 1136 -8 1200 13 l 1203 333 m 1067 201 b 977 112 1067 113 1045 112 b 896 201 910 112 896 113 l 896 316 b 977 400 896 398 910 400 b 1067 316 1050 400 1067 398 l 1067 201 m 473 862 b 247 1050 470 1029 406 1050 b 31 861 89 1050 35 1027 l 31 708 b 249 520 35 541 89 520 b 473 709 406 520 470 543 l 473 862 m 337 730 b 247 641 337 643 315 641 b 167 730 181 641 167 643 l 167 845 b 247 929 167 927 181 929 b 337 845 321 929 337 927 l 337 730 m 1009 1041 l 846 1041 l 243 0 l 406 0 l 1009 1041 "},"P":{"x_min":78.9375,"x_max":940.53125,"ha":988,"o":"m 351 0 l 351 266 l 592 266 b 940 659 876 266 940 366 b 592 1041 940 931 845 1041 l 78 1041 l 78 0 l 351 0 m 351 508 l 351 800 l 537 800 b 660 659 643 800 660 766 b 537 508 660 525 645 512 l 351 508 "},"∏":{"x_min":31.3125,"x_max":1185.53125,"ha":1243,"o":"m 1185 826 l 1185 1018 l 31 1018 l 31 826 l 208 826 l 208 -140 l 432 -140 l 432 826 l 782 826 l 782 -140 l 1008 -140 l 1008 826 l 1185 826 "},"À":{"x_min":-16,"x_max":1014,"ha":1018,"o":"m 683 179 l 736 0 l 1014 0 l 703 1041 l 290 1041 l -16 0 l 267 0 l 317 179 l 683 179 m 628 381 l 375 381 l 499 833 l 502 833 l 628 381 m 394 1362 l 326 1208 l 634 1109 l 672 1195 l 394 1362 "},"_":{"x_min":0,"x_max":680.5625,"ha":694,"o":"m 680 -104 l 0 -104 l 0 -173 l 680 -173 l 680 -104 "},"ñ":{"x_min":77.96875,"x_max":765.328125,"ha":860,"o":"m 77 729 l 77 0 l 312 0 l 312 401 b 434 554 312 490 329 554 b 531 449 510 554 529 519 l 531 0 l 765 0 l 765 504 b 535 737 765 661 693 737 b 400 708 480 737 435 731 b 321 593 365 687 339 651 l 312 593 l 312 729 l 77 729 m 606 1018 b 535 954 592 988 570 954 b 429 1002 501 954 467 977 b 302 1049 392 1026 351 1049 b 125 916 219 1049 163 984 l 237 856 b 318 918 254 889 278 918 b 415 871 348 918 378 894 b 550 824 452 847 495 824 b 717 961 633 824 683 892 l 606 1018 "},"+":{"x_min":68.0625,"x_max":748.609375,"ha":833,"o":"m 329 463 l 68 463 l 68 304 l 329 304 l 329 27 l 485 27 l 485 304 l 748 304 l 748 463 l 485 463 l 485 729 l 329 729 l 329 463 "},"‚":{"x_min":62.609375,"x_max":296.9375,"ha":367,"o":"m 76 233 l 76 0 l 160 0 b 62 -93 160 -69 140 -91 l 62 -197 b 296 0 249 -198 300 -143 l 296 233 l 76 233 "},"½":{"x_min":-50.5625,"x_max":1411.28125,"ha":1500,"o":"m 1079 1041 l 915 1041 l 312 0 l 476 0 l 1079 1041 m 399 1041 l 193 1041 l -50 852 l 51 746 l 223 894 l 223 419 l 399 419 l 399 1041 m 1411 130 l 1056 130 b 1227 230 1056 213 1092 196 b 1409 432 1366 266 1409 292 b 1148 630 1409 609 1305 630 b 887 427 979 630 887 596 l 887 396 l 1056 396 l 1056 427 b 1148 499 1056 494 1068 499 b 1241 430 1219 500 1241 492 b 1121 342 1242 366 1231 367 b 887 130 919 298 887 274 l 887 0 l 1411 0 l 1411 130 "},"Æ":{"x_min":-35.390625,"x_max":1404.671875,"ha":1492,"o":"m 679 377 l 400 377 l 562 813 l 679 813 l 679 377 m 679 0 l 1404 0 l 1404 227 l 937 227 l 937 426 l 1367 426 l 1367 619 l 937 619 l 937 813 l 1404 813 l 1404 1041 l 364 1041 l -35 0 l 259 0 l 328 184 l 679 184 l 679 0 "},"Ë":{"x_min":87.109375,"x_max":833,"ha":942,"o":"m 359 813 l 823 813 l 823 1041 l 87 1041 l 87 0 l 833 0 l 833 227 l 359 227 l 359 430 l 794 430 l 794 623 l 359 623 l 359 813 m 393 1301 l 245 1301 l 245 1158 l 393 1158 l 393 1301 m 679 1301 l 530 1301 l 530 1158 l 679 1158 l 679 1301 "},"'":{"x_min":55.8125,"x_max":243.640625,"ha":306,"o":"m 55 1041 l 55 861 l 112 681 l 186 681 l 243 861 l 243 1041 l 55 1041 "},"Š":{"x_min":50.953125,"x_max":926.171875,"ha":994,"o":"m 436 641 b 324 733 364 647 324 650 b 483 822 324 791 336 822 b 636 715 592 822 636 822 l 897 715 l 897 758 b 483 1050 897 1045 707 1050 b 52 731 217 1050 52 1030 b 451 416 52 433 199 434 l 511 412 b 653 315 638 404 653 405 b 483 219 653 227 611 219 b 312 338 350 219 312 230 l 50 338 b 483 -8 50 -2 223 -8 b 926 333 932 -8 926 161 b 549 633 926 572 851 611 l 436 641 m 485 1131 l 734 1283 l 700 1362 l 485 1276 l 278 1362 l 241 1283 l 485 1131 "},"ª":{"x_min":106.171875,"x_max":525.390625,"ha":667,"o":"m 383 827 l 379 827 b 258 875 362 877 302 875 b 106 736 156 875 106 843 b 258 594 106 629 163 594 b 336 611 284 594 313 598 b 381 672 359 622 377 641 l 383 672 l 383 600 l 525 600 l 525 905 b 319 1050 525 1040 438 1050 b 123 913 221 1050 123 1050 l 265 913 b 322 961 265 952 285 961 b 383 890 375 961 383 955 l 383 827 m 307 787 b 383 743 337 787 383 788 b 323 693 383 711 381 693 b 247 737 250 693 247 708 b 307 787 247 781 274 787 "},"Œ":{"x_min":54.703125,"x_max":1453.921875,"ha":1529,"o":"m 728 1 l 1453 1 l 1453 229 l 981 229 l 981 429 l 1414 429 l 1414 622 l 981 622 l 981 815 l 1444 815 l 1444 1043 l 728 1043 l 737 918 l 728 918 b 442 1051 684 1040 550 1051 b 54 595 118 1051 54 895 l 54 400 b 487 -6 54 72 181 -6 b 728 116 593 -5 671 18 l 737 116 l 728 1 m 723 434 b 505 220 723 280 703 220 b 326 434 358 220 326 254 l 326 636 b 505 823 326 780 356 823 b 723 636 663 823 723 804 l 723 434 "},"˛":{"x_min":102.078125,"x_max":323.9375,"ha":436,"o":"m 200 0 b 102 -137 147 -27 102 -73 b 246 -265 102 -222 171 -265 b 322 -249 272 -265 299 -260 l 322 -144 b 261 -156 302 -151 283 -156 b 209 -116 234 -156 209 -147 b 323 0 209 -67 287 -22 l 200 0 "},"ð":{"x_min":45.9375,"x_max":763.796875,"ha":824,"o":"m 406 554 b 526 363 515 554 526 522 b 406 174 526 205 515 174 b 280 363 293 174 280 205 b 406 554 280 522 293 554 m 241 991 b 334 915 282 959 310 938 l 171 862 l 260 774 l 416 824 b 496 663 454 777 481 716 b 299 731 443 716 408 731 b 45 363 75 731 45 562 b 402 -8 45 72 109 -8 b 761 386 699 -8 761 63 b 609 887 761 604 705 777 l 763 937 l 679 1026 l 524 976 b 424 1049 484 1011 455 1031 l 241 991 "},"T":{"x_min":1.359375,"x_max":809.859375,"ha":826,"o":"m 534 800 l 809 800 l 809 1041 l 1 1041 l 1 800 l 262 800 l 262 0 l 534 0 l 534 800 "},"š":{"x_min":44.25,"x_max":743.859375,"ha":803,"o":"m 709 522 l 709 556 b 394 737 709 736 524 737 b 44 498 195 737 44 733 b 394 281 44 350 97 281 b 516 209 475 281 516 281 b 394 145 516 152 500 145 b 278 227 336 145 278 145 l 44 227 b 394 -8 44 -12 208 -8 b 743 237 581 -8 743 23 b 394 461 743 441 636 455 b 271 525 274 463 271 488 b 394 583 271 568 271 583 b 452 576 413 583 434 583 b 489 522 470 568 485 552 l 709 522 m 391 819 l 640 970 l 606 1050 l 391 963 l 184 1050 l 147 970 l 391 819 "},"℮":{"x_min":49.484375,"x_max":1200.984375,"ha":1276,"o":"m 1200 505 l 1200 520 b 623 1050 1200 812 943 1050 b 49 520 306 1050 49 812 b 623 -6 49 229 306 -6 b 1079 197 810 -6 977 73 l 996 197 b 625 22 906 91 774 22 b 272 179 487 22 363 83 b 260 211 265 188 260 198 l 260 500 b 268 505 260 504 263 505 l 1200 505 m 990 543 b 983 534 990 540 987 534 l 268 534 b 260 543 263 534 260 540 l 260 826 b 274 862 260 841 265 854 b 625 1018 365 956 489 1018 b 975 868 762 1018 885 958 b 990 833 984 858 990 845 l 990 543 "},"Þ":{"x_min":78.9375,"x_max":940.53125,"ha":988,"o":"m 351 0 l 351 133 l 592 133 b 940 526 876 133 940 233 b 592 908 940 798 845 908 l 351 908 l 351 1041 l 78 1041 l 78 0 l 351 0 m 351 375 l 351 666 l 537 666 b 660 526 643 666 660 633 b 537 375 660 391 645 379 l 351 375 "},"j":{"x_min":-25.859375,"x_max":274.9375,"ha":336,"o":"m 274 729 l 40 729 l 40 15 b -25 -54 40 -20 32 -54 l -25 -218 b 43 -226 -2 -225 20 -226 b 274 -9 197 -226 274 -172 l 274 729 m 274 1041 l 40 1041 l 40 858 l 274 858 l 274 1041 "},"1":{"x_min":69.421875,"x_max":759.5,"ha":1000,"o":"m 759 1041 l 441 1041 l 69 727 l 223 550 l 487 796 l 487 0 l 759 0 l 759 1041 "},"›":{"x_min":53,"x_max":381,"ha":458,"o":"m 206 51 l 381 388 l 198 715 l 53 623 l 183 388 l 53 135 l 206 51 "},"ı":{"x_min":58.53125,"x_max":292.640625,"ha":357,"o":"m 292 729 l 58 729 l 58 0 l 292 0 l 292 729 "},"ℓ":{"x_min":43.3125,"x_max":873.578125,"ha":931,"o":"m 774 317 b 549 180 725 248 642 180 b 406 314 472 180 412 230 l 404 346 b 752 860 623 524 752 677 b 492 1128 752 1002 672 1128 b 182 720 310 1128 182 1009 l 182 392 b 43 296 137 360 88 328 l 105 180 b 186 234 134 198 157 214 b 187 221 187 230 187 225 b 492 -3 221 82 315 -3 b 873 217 631 -3 776 55 l 774 317 m 404 773 b 504 978 404 930 457 978 b 587 860 563 978 587 931 b 404 539 587 761 512 646 l 404 773 "},"ä":{"x_min":55.8125,"x_max":754.0625,"ha":846,"o":"m 392 301 b 519 234 468 301 519 295 b 392 145 519 158 490 145 b 289 225 356 145 289 145 b 392 301 289 291 334 301 m 519 0 l 754 0 l 754 455 b 413 737 754 706 653 737 b 84 512 246 737 84 738 l 318 512 b 413 591 318 577 355 591 b 519 480 515 591 519 548 l 519 365 l 509 365 b 314 447 483 448 381 447 b 55 218 145 447 55 393 b 314 -8 55 31 151 -8 b 519 108 396 -8 502 8 l 528 108 l 519 0 m 345 988 l 197 988 l 197 845 l 345 845 l 345 988 m 631 988 l 483 988 l 483 845 l 631 845 l 631 988 "},"<":{"x_min":68.0625,"x_max":748.609375,"ha":833,"o":"m 748 729 l 68 467 l 68 301 l 748 40 l 748 217 l 288 383 l 288 385 l 748 551 l 748 729 "},"£":{"x_min":63.96875,"x_max":955.5,"ha":1000,"o":"m 955 695 l 955 744 b 579 1050 955 977 887 1050 b 185 734 264 1050 187 958 l 185 584 l 63 584 l 63 383 l 185 383 b 95 222 185 297 189 222 l 95 0 l 955 0 l 955 222 l 393 222 l 393 229 b 457 383 451 258 457 293 l 715 383 l 715 584 l 457 584 l 457 694 b 578 818 457 793 481 818 b 665 794 622 818 649 812 b 688 695 683 777 688 747 l 955 695 "},"¹":{"x_min":14.96875,"x_max":464.140625,"ha":600,"o":"m 464 1050 l 257 1050 l 14 861 l 115 755 l 287 903 l 287 419 l 464 419 l 464 1050 "},"t":{"x_min":19.0625,"x_max":642.453125,"ha":674,"o":"m 611 729 l 340 729 l 340 883 l 106 883 l 106 729 l 19 729 l 19 554 l 106 554 l 106 194 b 379 -8 106 11 230 -8 b 642 234 570 -8 642 36 l 642 300 l 455 300 l 454 261 b 393 166 451 211 454 166 b 340 227 349 166 341 184 l 340 554 l 611 554 l 611 729 "},"¬":{"x_min":68.0625,"x_max":748.609375,"ha":833,"o":"m 592 218 l 748 218 l 748 623 l 68 623 l 68 463 l 592 463 l 592 218 "},"ù":{"x_min":68.921875,"x_max":754.921875,"ha":854,"o":"m 754 0 l 754 729 l 520 729 l 520 280 b 388 175 520 208 451 175 b 303 294 309 175 303 227 l 303 729 l 68 729 l 68 230 b 311 -8 68 52 169 -8 b 524 140 410 -8 492 27 l 535 140 l 527 0 l 754 0 m 313 1050 l 245 895 l 553 797 l 591 883 l 313 1050 "},"W":{"x_min":-12,"x_max":1515,"ha":1533,"o":"m 1087 238 l 1078 238 l 895 1041 l 612 1041 l 420 238 l 411 238 l 264 1041 l -12 1041 l 208 0 l 597 0 l 746 652 l 756 652 l 895 0 l 1289 0 l 1515 1041 l 1241 1041 l 1087 238 "},"ï":{"x_min":-42.1875,"x_max":392,"ha":357,"o":"m 292 729 l 58 729 l 58 0 l 292 0 l 292 729 m 106 988 l -42 988 l -42 845 l 106 845 l 106 988 m 392 988 l 243 988 l 243 845 l 392 845 l 392 988 "},">":{"x_min":68.0625,"x_max":748.609375,"ha":833,"o":"m 68 729 l 68 551 l 528 385 l 528 383 l 68 217 l 68 40 l 748 301 l 748 467 l 68 729 "},"v":{"x_min":-10,"x_max":730,"ha":736,"o":"m 730 729 l 487 729 l 370 159 l 364 159 l 234 729 l -10 729 l 187 0 l 554 0 l 730 729 "},"û":{"x_min":68.953125,"x_max":754.953125,"ha":854,"o":"m 754 0 l 754 729 l 520 729 l 520 280 b 388 175 520 208 451 175 b 303 294 309 175 303 227 l 303 729 l 68 729 l 68 230 b 311 -8 68 52 169 -8 b 524 140 410 -8 492 27 l 535 140 l 527 0 l 754 0 m 416 1050 l 172 898 l 209 819 l 416 905 l 631 819 l 665 898 l 416 1050 "},"Ò":{"x_min":44.921875,"x_max":989.53125,"ha":1056,"o":"m 517 -8 b 989 373 793 -8 989 52 l 989 668 b 517 1050 989 988 793 1050 b 44 668 240 1050 44 988 l 44 373 b 517 -8 44 52 240 -8 m 517 233 b 325 404 375 233 329 248 l 325 638 b 517 808 329 793 375 808 b 709 638 658 808 709 793 l 709 404 b 517 233 709 248 658 233 m 412 1362 l 344 1208 l 651 1109 l 690 1195 l 412 1362 "},"&":{"x_min":73.421875,"x_max":1033.796875,"ha":1075,"o":"m 657 235 b 517 213 611 213 558 213 b 323 351 393 213 323 210 b 386 474 323 402 321 467 l 657 235 m 912 1 l 1033 149 l 920 253 b 948 355 937 285 948 321 l 948 559 l 732 559 l 732 421 l 481 649 b 427 752 447 681 427 705 b 517 844 427 827 447 844 b 619 821 573 844 602 839 b 636 713 635 803 638 771 l 870 713 l 870 766 b 517 1051 873 1017 748 1051 b 176 771 291 1051 176 1010 b 254 595 176 685 190 652 b 73 323 99 592 73 455 b 517 -7 73 20 255 -7 b 818 87 628 -7 751 -7 l 912 1 "},"˝":{"x_min":102,"x_max":707.84375,"ha":826,"o":"m 298 1114 l 102 871 l 164 806 l 409 998 l 298 1114 m 596 1114 l 400 871 l 462 806 l 707 998 l 596 1114 "},"Ð":{"x_min":-43.5625,"x_max":999.0625,"ha":1076,"o":"m 70 629 l -43 629 l -43 436 l 70 436 l 70 0 l 624 0 b 999 419 909 0 999 134 l 999 637 b 588 1041 999 933 872 1041 l 70 1041 l 70 629 m 343 800 l 581 800 b 718 637 676 800 718 772 l 718 419 b 581 241 718 309 681 241 l 343 241 l 343 436 l 529 436 l 529 629 l 343 629 l 343 800 "},"I":{"x_min":84.390625,"x_max":356.609375,"ha":450,"o":"m 356 1041 l 84 1041 l 84 0 l 356 0 l 356 1041 "},"ˉ":{"x_min":102.078125,"x_max":529.46875,"ha":644,"o":"m 102 980 l 102 850 l 529 850 l 529 980 l 102 980 "},"G":{"x_min":43.5625,"x_max":980,"ha":1053,"o":"m 980 718 b 528 1050 980 1048 792 1050 b 43 654 228 1050 43 998 l 43 384 b 528 -8 43 47 206 -8 b 980 406 892 -8 980 55 l 980 588 l 515 588 l 515 395 l 703 395 b 528 219 703 251 666 219 b 323 423 386 219 323 238 l 323 593 b 528 822 326 761 332 822 b 703 718 609 822 698 823 l 980 718 "},"`":{"x_min":102,"x_max":447.71875,"ha":561,"o":"m 170 1050 l 102 895 l 409 797 l 447 883 l 170 1050 "},"·":{"x_min":134.75,"x_max":355.25,"ha":500,"o":"m 355 504 l 134 504 l 134 262 l 355 262 l 355 504 "},"r":{"x_min":73.5,"x_max":666.953125,"ha":696,"o":"m 455 411 l 666 411 l 666 468 b 490 737 666 601 653 737 b 379 711 446 737 409 729 b 310 622 349 693 326 663 l 300 622 l 300 729 l 73 729 l 73 0 l 307 0 l 307 437 b 394 554 307 497 323 554 b 455 445 458 554 455 497 l 455 411 "},"¿":{"x_min":62.609375,"x_max":762.21875,"ha":840,"o":"m 333 358 l 333 316 b 259 230 333 275 317 255 b 62 -55 115 165 62 125 b 405 -323 62 -291 197 -323 b 762 -55 623 -323 758 -293 l 762 -12 l 528 -12 l 528 -55 b 405 -140 528 -133 475 -140 b 296 -55 332 -140 296 -129 b 379 62 296 20 332 38 l 428 86 b 567 316 553 150 567 187 l 567 358 l 333 358 m 560 729 l 340 729 l 340 487 l 560 487 l 560 729 "},"ý":{"x_min":-10,"x_max":735,"ha":740,"o":"m 735 729 l 495 729 l 379 136 l 376 136 l 235 729 l -10 729 l 202 0 l 330 0 b 207 -156 326 -83 305 -156 b 167 -154 194 -156 180 -155 l 167 -319 b 247 -323 194 -320 220 -323 b 555 -63 446 -323 515 -255 l 735 729 m 468 1050 l 190 883 l 228 797 l 536 895 l 468 1050 "},"x":{"x_min":-8,"x_max":750,"ha":757,"o":"m 730 729 l 458 729 l 373 527 l 291 729 l 20 729 l 204 386 l -8 0 l 273 0 l 373 240 l 475 0 l 750 0 l 543 386 l 730 729 "},"è":{"x_min":40.921875,"x_max":739.171875,"ha":797,"o":"m 275 455 b 386 570 277 551 303 570 b 505 455 465 570 505 563 l 275 455 m 509 243 b 390 158 509 166 462 158 b 275 323 294 158 275 195 l 739 323 l 739 363 b 390 737 739 661 658 737 b 40 363 103 737 40 644 b 390 -8 40 91 108 -8 b 642 34 494 -8 581 0 b 739 243 703 70 739 133 l 509 243 m 285 1050 l 217 895 l 525 797 l 563 883 l 285 1050 "},"º":{"x_min":112.96875,"x_max":540.359375,"ha":667,"o":"m 326 1050 b 112 822 137 1050 112 995 b 326 594 112 648 137 594 b 540 822 515 594 540 648 b 326 1050 540 995 515 1050 m 326 943 b 398 822 383 943 398 926 b 326 701 398 718 383 701 b 254 822 269 701 254 718 b 326 943 254 926 269 943 "},"Ø":{"x_min":-10.75,"x_max":1048.1875,"ha":1056,"o":"m 1048 1084 l 894 952 b 525 1049 793 1049 661 1049 b 40 508 104 1049 40 920 l 40 343 b 64 215 40 280 51 246 l -10 151 l -10 -41 l 141 92 b 525 -7 236 -7 401 -7 b 993 543 948 -7 993 147 b 970 822 993 636 993 731 l 1048 888 l 1048 1084 m 713 591 l 713 369 b 533 233 713 283 661 233 b 354 276 492 233 374 233 l 713 591 m 321 444 l 321 565 b 525 808 321 791 364 808 b 683 763 588 808 639 808 l 321 444 "},"∞":{"x_min":70.78125,"x_max":1139.25,"ha":1238,"o":"m 1139 422 b 892 686 1139 581 1030 684 b 615 513 754 687 677 586 b 334 686 536 618 451 686 b 70 412 185 686 70 575 b 319 144 70 252 189 144 b 604 322 445 144 525 222 b 884 144 709 181 800 144 b 1139 420 1014 144 1139 247 l 1139 422 m 334 262 b 190 412 251 262 190 331 b 329 570 190 506 249 570 b 541 408 428 570 480 493 b 336 262 488 343 420 262 l 334 262 m 880 570 b 1018 412 963 570 1018 505 b 887 262 1018 344 971 262 b 673 418 816 262 764 300 b 879 570 722 476 789 570 l 880 570 "},"μ":{"x_min":73.5,"x_max":759.5,"ha":854,"o":"m 759 0 l 759 729 l 525 729 l 525 280 b 393 175 525 208 455 175 b 307 294 314 175 307 227 l 307 729 l 73 729 l 73 -315 l 307 -315 l 307 -8 b 529 140 415 -8 496 27 l 540 140 l 532 0 l 759 0 "},"÷":{"x_min":68.0625,"x_max":748.609375,"ha":833,"o":"m 68 304 l 748 304 l 748 463 l 68 463 l 68 304 m 485 38 l 485 198 l 329 198 l 329 38 l 485 38 m 485 569 l 485 729 l 329 729 l 329 569 l 485 569 "},"h":{"x_min":77.578125,"x_max":764.953125,"ha":860,"o":"m 311 1041 l 77 1041 l 77 0 l 311 0 l 311 401 b 434 554 311 490 329 554 b 530 448 510 554 529 519 l 530 0 l 764 0 l 764 504 b 534 737 764 661 692 737 b 400 708 480 737 435 730 b 321 593 364 687 338 651 l 311 593 l 311 1041 "},".":{"x_min":122.5,"x_max":343,"ha":500,"o":"m 343 241 l 122 241 l 122 0 l 343 0 l 343 241 "},";":{"x_min":115.6875,"x_max":350.03125,"ha":500,"o":"m 115 -197 b 349 0 302 -198 353 -143 l 349 233 l 129 233 l 129 0 l 213 0 b 115 -93 213 -69 193 -91 l 115 -197 m 349 729 l 129 729 l 129 487 l 349 487 l 349 729 "},"f":{"x_min":27.21875,"x_max":514.5,"ha":546,"o":"m 514 729 l 355 729 l 355 755 b 461 866 355 847 357 866 b 504 859 476 866 491 863 l 504 1041 b 121 800 193 1044 121 991 l 121 729 l 27 729 l 27 554 l 121 554 l 121 0 l 355 0 l 355 554 l 514 554 l 514 729 "},"“":{"x_min":62.390625,"x_max":602.96875,"ha":679,"o":"m 589 619 l 589 852 l 504 852 b 602 945 504 922 525 944 l 602 1050 b 368 852 416 1051 364 995 l 368 619 l 589 619 m 283 619 l 283 852 l 198 852 b 296 945 198 922 219 944 l 296 1050 b 62 852 110 1051 58 995 l 62 619 l 283 619 "},"A":{"x_min":-16,"x_max":1014,"ha":1018,"o":"m 683 179 l 736 0 l 1014 0 l 703 1041 l 290 1041 l -16 0 l 267 0 l 317 179 l 683 179 m 628 381 l 375 381 l 499 833 l 502 833 l 628 381 "},"6":{"x_min":78.9375,"x_max":898.328125,"ha":1000,"o":"m 466 416 b 631 330 586 416 631 418 b 466 209 631 216 612 209 b 336 325 352 209 336 229 b 466 416 336 406 366 416 m 898 725 l 898 769 b 498 1051 898 1040 709 1051 b 78 675 202 1051 78 997 l 78 413 b 498 -6 78 62 163 -6 b 890 334 759 -6 890 44 b 525 633 890 605 764 633 b 340 525 436 633 375 631 l 337 525 l 337 690 b 498 834 337 829 374 834 b 639 725 598 834 639 829 l 898 725 "},"‘":{"x_min":62.390625,"x_max":296.71875,"ha":367,"o":"m 283 619 l 283 852 l 198 852 b 296 945 198 922 219 944 l 296 1050 b 62 852 110 1051 58 995 l 62 619 l 283 619 "},"π":{"x_min":2.71875,"x_max":1018.109375,"ha":1061,"o":"m 997 586 l 1018 765 l 288 765 b 2 712 132 765 42 745 l 27 570 b 194 586 68 583 123 586 b 96 0 193 423 147 151 l 326 0 b 426 586 379 116 421 411 l 645 586 l 645 227 b 673 0 645 120 653 27 l 902 0 b 882 245 891 48 882 131 l 882 586 l 997 586 "},"O":{"x_min":44.921875,"x_max":989.53125,"ha":1056,"o":"m 517 -8 b 989 373 793 -8 989 52 l 989 668 b 517 1050 989 988 793 1050 b 44 668 240 1050 44 988 l 44 373 b 517 -8 44 52 240 -8 m 517 233 b 325 404 375 233 329 248 l 325 638 b 517 808 329 793 375 808 b 709 638 658 808 709 793 l 709 404 b 517 233 709 248 658 233 "},"n":{"x_min":77.578125,"x_max":764.953125,"ha":860,"o":"m 77 729 l 77 0 l 311 0 l 311 401 b 434 554 311 490 329 554 b 530 448 510 554 529 519 l 530 0 l 764 0 l 764 504 b 534 737 764 661 692 737 b 400 708 480 737 435 730 b 321 593 364 687 338 651 l 311 593 l 311 729 l 77 729 "},"3":{"x_min":74.859375,"x_max":902.421875,"ha":1000,"o":"m 423 431 l 488 431 b 643 334 631 431 643 405 b 488 208 643 213 600 208 b 333 330 393 208 333 213 l 333 365 l 74 365 l 74 309 b 500 -8 74 12 264 -8 b 902 300 730 -8 902 30 b 733 523 902 420 864 518 l 733 534 b 890 769 858 551 890 652 b 500 1050 890 1036 665 1050 b 85 727 239 1050 85 1025 l 85 691 l 344 691 l 344 712 b 488 833 344 831 389 833 b 631 718 627 833 631 804 b 488 633 631 647 620 633 l 423 633 l 423 431 "},"9":{"x_min":77.578125,"x_max":896.96875,"ha":1000,"o":"m 509 625 b 344 711 389 625 344 623 b 509 831 344 825 363 831 b 639 716 623 831 639 812 b 509 625 639 634 609 625 m 77 316 l 77 272 b 477 -9 77 1 266 -9 b 896 366 773 -9 896 44 l 896 627 b 477 1048 896 979 812 1048 b 85 706 216 1048 85 997 b 450 408 85 436 210 408 b 635 516 539 408 600 409 l 638 516 l 638 351 b 477 206 638 212 601 206 b 336 316 377 206 336 212 l 77 316 "},"l":{"x_min":80.3125,"x_max":314.421875,"ha":401,"o":"m 314 1041 l 80 1041 l 80 0 l 314 0 l 314 1041 "},"¤":{"x_min":129.015625,"x_max":850.703125,"ha":1000,"o":"m 732 350 b 784 519 748 382 784 435 b 736 656 779 590 749 627 l 850 771 l 752 870 l 639 756 b 493 797 608 779 553 795 b 340 753 431 800 374 779 l 228 867 l 129 767 l 241 654 b 244 354 187 602 164 453 l 133 239 l 229 142 l 344 258 b 485 210 382 228 436 212 b 634 255 564 208 597 236 l 744 143 l 842 237 l 732 350 m 359 497 b 488 638 353 565 409 638 b 617 497 568 638 623 565 b 488 369 620 451 583 369 b 359 497 421 369 363 425 "},"∂":{"x_min":51.71875,"x_max":913.3125,"ha":1004,"o":"m 164 913 b 396 980 204 938 284 980 b 686 633 577 980 686 822 l 686 593 l 684 593 b 420 730 657 634 567 730 b 51 350 202 730 51 566 b 417 -4 51 204 164 -4 b 913 591 715 -4 913 241 b 424 1158 913 940 699 1158 b 96 1065 254 1158 144 1098 l 164 913 m 442 172 b 281 348 349 172 281 248 b 473 559 281 465 363 559 b 661 423 579 559 647 472 b 445 172 643 304 563 172 l 442 172 "},"4":{"x_min":49,"x_max":928.28125,"ha":1000,"o":"m 841 1041 l 439 1041 l 49 502 l 49 205 l 582 205 l 582 0 l 841 0 l 841 205 l 928 205 l 928 406 l 841 406 l 841 1041 m 582 406 l 262 406 l 573 827 l 582 827 l 582 406 "},"p":{"x_min":74.859375,"x_max":789.453125,"ha":858,"o":"m 74 -315 l 308 -315 l 308 109 l 319 109 b 518 -8 357 9 432 -8 b 789 302 714 -8 789 80 l 789 469 b 518 737 789 662 691 737 b 314 613 416 737 341 712 l 303 613 l 308 729 l 74 729 l 74 -315 m 426 554 b 555 363 549 554 555 505 b 426 175 555 198 522 175 b 308 363 317 175 308 241 b 426 554 308 518 326 554 "},"‡":{"x_min":125.21875,"x_max":854.78125,"ha":1000,"o":"m 607 1041 l 372 1041 l 372 729 l 125 729 l 125 545 l 372 545 l 372 183 l 125 183 l 125 0 l 372 0 l 372 -315 l 607 -315 l 607 0 l 854 0 l 854 183 l 607 183 l 607 545 l 854 545 l 854 729 l 607 729 l 607 1041 "},"à":{"x_min":55.921875,"x_max":754.171875,"ha":846,"o":"m 392 301 b 520 234 468 301 520 295 b 392 145 520 158 490 145 b 290 225 356 145 290 145 b 392 301 290 291 334 301 m 520 0 l 754 0 l 754 455 b 413 737 754 706 653 737 b 84 512 246 737 84 738 l 318 512 b 413 591 318 577 355 591 b 520 480 515 591 520 548 l 520 365 l 509 365 b 314 447 483 448 381 447 b 55 218 145 447 55 393 b 314 -8 55 31 151 -8 b 520 108 396 -8 502 8 l 528 108 l 520 0 m 310 1050 l 242 895 l 550 797 l 588 883 l 310 1050 "},"Ü":{"x_min":85.75,"x_max":965.03125,"ha":1071,"o":"m 692 1041 l 692 365 b 537 233 692 243 653 233 b 357 352 423 233 357 234 l 357 1041 l 85 1041 l 85 347 b 537 -8 85 97 129 -8 b 965 347 837 -8 965 69 l 965 1041 l 692 1041 m 455 1301 l 307 1301 l 307 1158 l 455 1158 l 455 1301 m 741 1301 l 593 1301 l 593 1158 l 741 1158 l 741 1301 "},"ó":{"x_min":45.90625,"x_max":760.484375,"ha":824,"o":"m 402 737 b 45 363 104 737 45 662 b 402 -8 45 72 109 -8 b 760 363 699 -8 760 63 b 402 737 760 672 701 737 m 406 554 b 526 363 515 554 526 522 b 406 175 526 205 515 175 b 280 363 293 175 280 205 b 406 554 280 522 293 554 m 508 1050 l 231 883 l 269 797 l 576 895 l 508 1050 "},"√":{"x_min":45,"x_max":1037,"ha":1025,"o":"m 1037 1215 l 873 1215 l 586 126 b 559 0 575 78 566 34 l 556 1 b 519 119 545 37 532 78 l 336 605 l 45 483 l 83 370 l 204 421 l 465 -217 l 645 -217 l 1037 1215 "}}}
